<svg width="55" height="68" viewBox="0 0 55 68" fill="none" xmlns="http://www.w3.org/2000/svg">
<mask id="mask0_374_1678" style="mask-type:luminance" maskUnits="userSpaceOnUse" x="23" y="0" width="14" height="63">
<path d="M23.1758 0H36.5091V62.4583H23.1758V0Z" fill="white"/>
</mask>
<g mask="url(#mask0_374_1678)">
<path d="M36.0781 5.07292V14.875L34.3906 16.0938V6.16146L32.6979 5.4375V17.3073L31.1146 18.4479L31.0104 18.526V4.71354L29.3177 3.98958V62.224H27.6302V3.26563L25.9375 2.53646V62.224H24.25V0L25.9375 0.723959L27.6302 1.45313L29.3177 2.17187L31.0104 2.90104L32.6979 3.625L34.3906 4.34896L36.0781 5.07292Z" fill="white"/>
</g>
<mask id="mask1_374_1678" style="mask-type:luminance" maskUnits="userSpaceOnUse" x="16" y="0" width="9" height="63">
<path d="M16.5117 0H24.5117V62.4583H16.5117V0Z" fill="white"/>
</mask>
<g mask="url(#mask1_374_1678)">
<path d="M24.25 0V62.224H21.3854V29.2396L20.8594 28.8646L20.1719 28.3646L18.7865 27.3646L17.401 26.3698L17.2031 26.224V5.07292L24.25 0Z" fill="white"/>
</g>
<path d="M47.3503 19.4791V62.2239H45.9596V20.3749L44.5742 19.776V62.2239H43.1836V19.1874L41.7982 18.5885V62.2239H40.4128V17.9947L39.0221 17.3958V62.2239H37.6367V15.3176L39.0221 15.9114L40.4128 16.5051L41.7982 17.1041L43.1836 17.6978L44.5742 18.2916L45.9596 18.8853L47.3503 19.4791Z" fill="white"/>
<path d="M37.6367 15.3176V62.2239H31.8555V19.4791L32.6992 18.8749L34.3919 17.6562L36.0794 16.4374L37.6367 15.3176Z" fill="white"/>
<path d="M15.3815 26.4791V62.2239H14.2461V28.1875L13.1159 28.6718V62.2239H11.9805V29.1562L10.8398 29.6458V62.2239H9.70443V30.1354L8.56901 30.6198V62.2239H7.43359V29.8906L9.70443 28.9114L10.8398 28.427L11.9805 27.9427L13.1159 27.4531L14.2461 26.9635L15.3815 26.4791Z" fill="white"/>
<path d="M20.1211 29.8906V62.224H15.3867V26.4844L16.6576 27.401L17.2044 27.7865L18.0482 28.3906L19.4284 29.3906L20.1211 29.8906Z" fill="white"/>
<mask id="mask2_374_1678" style="mask-type:luminance" maskUnits="userSpaceOnUse" x="0" y="61" width="55" height="7">
<path d="M0 61.125H54.9531V67.9427H0V61.125Z" fill="white"/>
</mask>
<g mask="url(#mask2_374_1678)">
<path d="M53.0954 67.9271H1.68396C0.527715 67.9271 0.00688136 66.474 0.902715 65.7396L4.86626 62.5C5.08501 62.3177 5.36105 62.224 5.6423 62.224H49.1319C49.4183 62.224 49.6944 62.3177 49.9131 62.5L53.8715 65.7396C54.7673 66.474 54.2517 67.9271 53.0954 67.9271Z" fill="white"/>
</g>
</svg>
