<svg width="55" height="68" viewBox="0 0 55 68" fill="none" xmlns="http://www.w3.org/2000/svg">
<mask id="mask0_458_387" style="mask-type:luminance" maskUnits="userSpaceOnUse" x="23" y="0" width="14" height="63">
<path d="M23.1992 0.0285645H36.5326V62.4869H23.1992V0.0285645Z" fill="white"/>
</mask>
<g mask="url(#mask0_458_387)">
<path d="M36.1016 5.10148V14.9036L34.4141 16.1223V6.19002L32.7214 5.46606V17.3359L31.138 18.4765L31.0339 18.5546V4.74211L29.3411 4.01815V62.2525H27.6536V3.29419L25.9609 2.56502V62.2525H24.2734V0.0285645L25.9609 0.752523L27.6536 1.48169L29.3411 2.20044L31.0339 2.92961L32.7214 3.65356L34.4141 4.37752L36.1016 5.10148Z" fill="#4D6C4A"/>
</g>
<mask id="mask1_458_387" style="mask-type:luminance" maskUnits="userSpaceOnUse" x="16" y="0" width="9" height="63">
<path d="M16.5352 0.0285645H24.5352V62.4869H16.5352V0.0285645Z" fill="white"/>
</mask>
<g mask="url(#mask1_458_387)">
<path d="M24.2734 0.0285645V62.2525H21.4089V29.2681L20.8828 28.8931L20.1953 28.3931L18.8099 27.3931L17.4245 26.3984L17.2266 26.2525V5.10148L24.2734 0.0285645Z" fill="#323335"/>
</g>
<path d="M47.3737 19.5076V62.2524H45.9831V20.4035L44.5977 19.8045V62.2524H43.207V19.216L41.8216 18.617V62.2524H40.4362V18.0233L39.0456 17.4243V62.2524H37.6602V15.3462L39.0456 15.9399L40.4362 16.5337L41.8216 17.1326L43.207 17.7264L44.5977 18.3201L45.9831 18.9139L47.3737 19.5076Z" fill="#4D6C4A"/>
<path d="M37.6602 15.3462V62.2524H31.8789V19.5076L32.7227 18.9035L34.4154 17.6847L36.1029 16.466L37.6602 15.3462Z" fill="#323335"/>
<path d="M15.4049 26.5078V62.2526H14.2695V28.2161L13.1393 28.7005V62.2526H12.0039V29.1849L10.8633 29.6745V62.2526H9.72786V30.1641L8.59245 30.6484V62.2526H7.45703V29.9193L9.72786 28.9401L10.8633 28.4557L12.0039 27.9714L13.1393 27.4818L14.2695 26.9922L15.4049 26.5078Z" fill="#323335"/>
<path d="M20.1445 29.9192V62.2525H15.4102V26.5129L16.681 27.4296L17.2279 27.815L18.0716 28.4192L19.4518 29.4192L20.1445 29.9192Z" fill="#4D6C4A"/>
<mask id="mask2_458_387" style="mask-type:luminance" maskUnits="userSpaceOnUse" x="0" y="61" width="55" height="7">
<path d="M0.0234375 61.1536H54.9766V67.9713H0.0234375V61.1536Z" fill="white"/>
</mask>
<g mask="url(#mask2_458_387)">
<path d="M53.1189 67.9556H1.7074C0.551153 67.9556 0.0303189 66.5024 0.926152 65.7681L4.88969 62.5285C5.10844 62.3462 5.38449 62.2524 5.66574 62.2524H49.1553C49.4418 62.2524 49.7178 62.3462 49.9366 62.5285L53.8949 65.7681C54.7907 66.5024 54.2751 67.9556 53.1189 67.9556Z" fill="#4D6C4A"/>
</g>
</svg>
