<svg width="103" height="66" viewBox="0 0 103 66" fill="none" xmlns="http://www.w3.org/2000/svg">
<path d="M34.7759 47.9062L29.6561 54.7812C28.5728 56.2396 28.8748 58.3177 30.3332 59.4062L30.6926 59.6719C31.2811 60.1094 31.9738 60.3229 32.6613 60.3229C33.6717 60.3229 34.6717 59.8646 35.3176 58.9948L40.4321 52.1198C41.5207 50.6615 41.2134 48.5833 39.7551 47.5L39.3957 47.2292C38.8071 46.7917 38.1144 46.5781 37.4321 46.5781C36.4217 46.5781 35.4217 47.0417 34.7759 47.9062Z" fill="white"/>
<path d="M37.3281 53.9167H47.6979V65.2136H37.3281V53.9167Z" fill="white"/>
<path d="M41.4271 55.125L37.9375 59.8177C36.9688 61.1146 37.2396 62.974 38.5417 63.9427L39.4688 64.6354C39.9948 65.0261 40.6146 65.2136 41.224 65.2136C42.1302 65.2136 43.0209 64.8021 43.599 64.0261L47.0886 59.3386C48.0573 58.0417 47.7813 56.1823 46.4844 55.2136L45.5573 54.5209C45.0313 54.1302 44.4115 53.9427 43.8021 53.9427C42.8959 53.9427 42.0052 54.3542 41.4271 55.125Z" fill="white"/>
<path d="M22.7657 39.8177L21.3594 38.7708C20.8855 38.4219 20.3282 38.25 19.7813 38.25C18.9688 38.25 18.1667 38.6198 17.6459 39.3177L15.2969 42.4688C14.4271 43.6406 14.6719 45.3073 15.8438 46.1771L17.25 47.2292C17.724 47.5781 18.2761 47.75 18.8282 47.75C19.6407 47.75 20.4428 47.3802 20.9584 46.6823L23.3073 43.5312C24.1771 42.3594 23.9323 40.6927 22.7657 39.8177Z" fill="white"/>
<path d="M33.177 40.3073C32.5468 39.8386 31.8072 39.6146 31.0728 39.6146C29.9947 39.6146 28.9218 40.1042 28.2343 41.0313L21.9843 49.4219C20.828 50.9844 21.1509 53.2084 22.7082 54.3698C23.3384 54.8386 24.078 55.0625 24.8124 55.0625C25.7863 55.0625 26.7551 54.6615 27.4426 53.9011C27.5468 53.7292 27.6561 53.5521 27.7811 53.3855L32.9009 46.5105C33.0468 46.3125 33.2082 46.125 33.3801 45.948L33.9009 45.2552C35.0624 43.6927 34.7343 41.4688 33.177 40.3073Z" fill="white"/>
<path d="M0 0H24.7031V34.5781H0V0Z" fill="white"/>
<path d="M15.5781 1.16146L0.520814 28.1042C0.0468552 28.9583 0.348939 30.0365 1.20311 30.5156L6.40623 33.4219C7.2604 33.8958 8.33852 33.5938 8.81248 32.7396L23.875 5.79167C24.3489 4.9375 24.0469 3.85937 23.1927 3.38542L17.9896 0.479165C17.1354 -1.43051e-06 16.0573 0.30729 15.5781 1.16146Z" fill="white"/>
<path d="M78.6719 1.48438H102.474V34.9219H78.6719V1.48438Z" fill="white"/>
<path d="M78.8958 7.04167L93.9583 33.9844C94.4323 34.8385 95.5104 35.1458 96.3646 34.6667L101.568 31.7604C102.422 31.2813 102.724 30.2031 102.25 29.349L87.1927 2.40625C86.7135 1.55209 85.6354 1.2448 84.7812 1.72396L79.5781 4.63021C78.7239 5.10938 78.4219 6.1875 78.8958 7.04167Z" fill="white"/>
<path d="M85.0415 43.5469C85.0831 42.3021 84.505 41.1198 83.5102 40.3646L75.6977 34.4427C72.8696 32.4531 69.3488 30.1719 65.2238 27.6666C59.4113 24.1302 53.9321 21.0729 51.3904 19.6771C50.9946 19.4583 50.531 19.401 50.0935 19.5156L47.2342 20.2656C46.8175 20.375 46.4477 20.6354 46.2081 20.9896L46.2029 20.9948C45.4113 22.1562 44.531 23.2239 43.5831 24.1614C42.4738 25.2656 41.2967 26.1823 40.0831 26.8854C38.63 27.7291 37.13 28.2604 35.63 28.4687C35.2967 28.5156 34.9633 28.5364 34.6404 28.5364C33.4633 28.5364 32.3644 28.2344 31.4685 27.6614C30.3227 26.9323 29.5831 25.8594 29.3383 24.5677C29.0571 23.0677 29.4425 21.3541 30.5258 19.3333C31.2862 17.9062 32.2342 16.6041 32.9321 15.6562C33.0988 15.4219 33.2498 15.2187 33.3644 15.0521C33.8435 14.3698 34.4008 13.5937 35.0258 12.7812C35.1821 12.5729 35.0154 12.276 34.755 12.3073C33.4425 12.4583 30.479 12.3125 25.8123 9.41665C25.3956 9.16144 24.8488 9.30206 24.6144 9.72915L11.6769 32.875C11.406 33.3594 11.4738 33.9635 11.8435 34.3802L15.2706 38.2396C15.3175 38.2916 15.3696 38.3385 15.4321 38.3802L15.7758 37.9219C16.2446 37.2864 16.8696 36.7708 17.5779 36.4219C18.2602 36.0885 19.0206 35.9166 19.781 35.9166C20.3019 35.9166 20.8227 35.9948 21.3175 36.1562C21.8331 36.3229 22.3175 36.5729 22.7498 36.8958L24.1613 37.9479C24.6977 38.3489 25.1456 38.8437 25.4842 39.4219C25.5623 39.5573 25.6352 39.6979 25.6977 39.8385C25.7863 40.0312 26.0467 40.0573 26.1717 39.8906L26.354 39.6354C26.9113 38.8906 27.6456 38.2812 28.479 37.875C29.281 37.4844 30.1925 37.276 31.0675 37.276C31.6821 37.276 32.2967 37.3698 32.88 37.5625C33.4894 37.7604 34.0571 38.0521 34.5727 38.4323C35.2081 38.9062 35.729 39.4896 36.13 40.1719C36.5102 40.8281 36.7602 41.5416 36.8696 42.2916C36.9477 42.8125 36.9529 43.3385 36.8904 43.8541C36.8644 44.0677 37.031 44.2552 37.2446 44.2448C37.3071 44.2448 37.3696 44.2448 37.4373 44.2448C38.0206 44.2448 38.6092 44.3333 39.1717 44.5156C39.755 44.7083 40.3019 44.9896 40.7915 45.3541L41.1508 45.625C42.9165 46.9375 43.6925 49.0885 43.3383 51.1146C43.2967 51.375 43.4998 51.6094 43.7602 51.6041C43.7758 51.6041 43.7863 51.6041 43.8019 51.6041C44.3592 51.6041 44.906 51.6927 45.4321 51.8646C45.979 52.0416 46.4894 52.3021 46.9477 52.651L47.88 53.3385C50.2185 55.0833 50.7029 58.3958 48.9633 60.7344L48.505 61.3489C48.2915 61.6406 48.3383 62.0521 48.63 62.2656C48.6821 62.3021 48.7394 62.3333 48.7967 62.3541C49.8383 62.7239 59.8644 66.1302 62.6977 61.3489C62.8852 61.0364 62.7602 60.6302 62.4321 60.4687L53.0779 55.8958C52.5102 55.6198 52.2185 54.9739 52.4008 54.375C52.5363 53.9375 52.9165 53.5416 53.8383 53.5C53.9373 53.4948 54.0363 53.5208 54.1248 53.5625L63.7446 58.5833C64.8227 59.1458 66.0519 59.3854 67.2602 59.2344C68.7446 59.0521 70.354 58.2864 70.4946 55.8646C70.531 55.2291 70.2081 54.6302 69.656 54.3073L57.6508 47.3125C57.1821 47.0416 56.9269 46.5052 57.0206 45.9739C57.104 45.4687 57.3696 44.9635 58.1092 44.9323C58.3488 44.9271 58.5883 44.9896 58.7967 45.1094L71.4113 52.4427C72.0467 52.8125 72.7706 52.9896 73.4998 52.9583C74.7654 52.8958 76.604 52.5156 77.3331 50.8698C77.9738 49.4271 77.4113 47.7291 76.0519 46.9166L62.2394 38.6302C61.8331 38.3854 61.5935 37.9375 61.6248 37.4583C61.6665 36.8333 61.9842 36.125 63.2654 36.3281C63.4217 36.3541 63.5727 36.4114 63.7081 36.4948L79.3956 45.8437C80.5623 46.5416 81.9946 46.6562 83.2394 46.1198C84.1717 45.7239 84.9946 44.9687 85.0415 43.5469Z" fill="white"/>
<path d="M90.7759 33.4531L77.6821 10.0209C77.578 9.83335 77.3592 9.74481 77.1561 9.80731C76.2134 10.0834 75.0363 10.3698 74.8696 10.3906C74.3592 10.4531 73.854 10.4844 73.3436 10.4844C71.6196 10.4844 69.9009 10.1406 68.2707 9.58335C64.4738 8.28127 59.7602 7.90106 55.5519 7.90106C52.4373 7.90106 49.604 8.1094 47.63 8.2969C45.9998 8.44794 44.4217 8.56773 42.8436 9.03127C41.3592 9.46877 40.0936 10.4792 39.0571 11.599C38.7811 11.8959 38.5155 12.1979 38.2498 12.5052C37.1925 13.7448 36.2082 15.0677 35.2759 16.3959C33.9061 18.3386 29.5363 23.6667 32.7238 25.6927C33.2915 26.0521 33.9634 26.1979 34.6405 26.1979C34.8644 26.1979 35.0936 26.1823 35.3123 26.1511C37.8644 25.8021 40.1457 24.2813 41.9373 22.5052C42.8019 21.6406 43.5832 20.6875 44.2707 19.6771C44.3905 19.5052 44.8592 18.474 45.0571 18.4219L49.4321 17.2709L50.8957 16.8906C50.9321 16.8802 50.9738 16.875 51.0155 16.875C51.0936 16.875 51.1665 16.8959 51.2394 16.9323C53.4946 18.1563 73.1561 28.9375 84.4373 38.6771C84.4425 38.6771 84.4425 38.6771 84.4425 38.6771C84.5988 38.8125 84.828 38.8125 84.9842 38.6823L90.7498 33.9427C90.854 33.7969 90.8644 33.6094 90.7759 33.4531Z" fill="white"/>
</svg>
