<svg width="103" height="66" viewBox="0 0 103 66" fill="none" xmlns="http://www.w3.org/2000/svg">
<path d="M34.7759 47.915L29.6561 54.79C28.5728 56.2484 28.8748 58.3265 30.3332 59.415L30.6926 59.6807C31.2811 60.1182 31.9738 60.3317 32.6613 60.3317C33.6717 60.3317 34.6717 59.8734 35.3176 59.0036L40.4321 52.1286C41.5207 50.6702 41.2134 48.5921 39.7551 47.5088L39.3957 47.238C38.8071 46.8005 38.1144 46.5869 37.4321 46.5869C36.4217 46.5869 35.4217 47.0505 34.7759 47.915Z" fill="#4D6C4A"/>
<path d="M37.3281 53.9255H47.6979V65.2224H37.3281V53.9255Z" fill="white"/>
<path d="M41.4271 55.1338L37.9375 59.8265C36.9688 61.1234 37.2396 62.9828 38.5417 63.9515L39.4688 64.6442C39.9948 65.0349 40.6146 65.2224 41.224 65.2224C42.1302 65.2224 43.0209 64.8109 43.599 64.0349L47.0886 59.3474C48.0573 58.0505 47.7813 56.1911 46.4844 55.2224L45.5573 54.5296C45.0313 54.139 44.4115 53.9515 43.8021 53.9515C42.8959 53.9515 42.0052 54.363 41.4271 55.1338Z" fill="#4D6C4A"/>
<path d="M22.7657 39.8265L21.3594 38.7796C20.8855 38.4307 20.3282 38.2588 19.7813 38.2588C18.9688 38.2588 18.1667 38.6286 17.6459 39.3265L15.2969 42.4775C14.4271 43.6494 14.6719 45.3161 15.8438 46.1859L17.25 47.238C17.724 47.5869 18.2761 47.7588 18.8282 47.7588C19.6407 47.7588 20.4428 47.389 20.9584 46.6911L23.3073 43.54C24.1771 42.3682 23.9323 40.7015 22.7657 39.8265Z" fill="#4D6C4A"/>
<path d="M33.177 40.3161C32.5468 39.8474 31.8072 39.6234 31.0728 39.6234C29.9947 39.6234 28.9218 40.113 28.2343 41.0401L21.9843 49.4307C20.828 50.9932 21.1509 53.2172 22.7082 54.3786C23.3384 54.8474 24.078 55.0713 24.8124 55.0713C25.7863 55.0713 26.7551 54.6703 27.4426 53.9099C27.5468 53.738 27.6561 53.5609 27.7811 53.3942L32.9009 46.5192C33.0468 46.3213 33.2082 46.1338 33.3801 45.9567L33.9009 45.264C35.0624 43.7015 34.7343 41.4776 33.177 40.3161Z" fill="#4D6C4A"/>
<path d="M0 0.00878906H24.7031V34.5869H0V0.00878906Z" fill="white"/>
<path d="M15.5781 1.17025L0.520814 28.113C0.0468552 28.9671 0.348939 30.0452 1.20311 30.5244L6.40623 33.4307C7.2604 33.9046 8.33852 33.6025 8.81248 32.7484L23.875 5.80045C24.3489 4.94629 24.0469 3.86816 23.1927 3.3942L17.9896 0.487954C17.1354 0.00878763 16.0573 0.316079 15.5781 1.17025Z" fill="#4D6C4A"/>
<path d="M78.6719 1.49316H102.474V34.9307H78.6719V1.49316Z" fill="white"/>
<path d="M78.8958 7.05046L93.9583 33.9932C94.4323 34.8473 95.5104 35.1546 96.3646 34.6755L101.568 31.7692C102.422 31.29 102.724 30.2119 102.25 29.3577L87.1927 2.41504C86.7135 1.56088 85.6354 1.25358 84.7812 1.73275L79.5781 4.639C78.7239 5.11817 78.4219 6.19629 78.8958 7.05046Z" fill="#4D6C4A"/>
<path d="M85.0415 43.5556C85.0831 42.3109 84.505 41.1286 83.5102 40.3734L75.6977 34.4515C72.8696 32.4619 69.3488 30.1806 65.2238 27.6754C59.4113 24.139 53.9321 21.0817 51.3904 19.6859C50.9946 19.4671 50.531 19.4098 50.0935 19.5244L47.2342 20.2744C46.8175 20.3838 46.4477 20.6442 46.2081 20.9984L46.2029 21.0036C45.4113 22.165 44.531 23.2327 43.5831 24.1702C42.4738 25.2744 41.2967 26.1911 40.0831 26.8942C38.63 27.7379 37.13 28.2692 35.63 28.4775C35.2967 28.5244 34.9633 28.5452 34.6404 28.5452C33.4633 28.5452 32.3644 28.2431 31.4685 27.6702C30.3227 26.9411 29.5831 25.8681 29.3383 24.5765C29.0571 23.0765 29.4425 21.3629 30.5258 19.3421C31.2862 17.915 32.2342 16.6129 32.9321 15.665C33.0988 15.4306 33.2498 15.2275 33.3644 15.0609C33.8435 14.3786 34.4008 13.6025 35.0258 12.79C35.1821 12.5817 35.0154 12.2848 34.755 12.3161C33.4425 12.4671 30.479 12.3213 25.8123 9.42544C25.3956 9.17023 24.8488 9.31085 24.6144 9.73794L11.6769 32.8838C11.406 33.3681 11.4738 33.9723 11.8435 34.389L15.2706 38.2484C15.3175 38.3004 15.3696 38.3473 15.4321 38.389L15.7758 37.9306C16.2446 37.2952 16.8696 36.7796 17.5779 36.4306C18.2602 36.0973 19.0206 35.9254 19.781 35.9254C20.3019 35.9254 20.8227 36.0036 21.3175 36.165C21.8331 36.3317 22.3175 36.5817 22.7498 36.9046L24.1613 37.9567C24.6977 38.3577 25.1456 38.8525 25.4842 39.4306C25.5623 39.5661 25.6352 39.7067 25.6977 39.8473C25.7863 40.04 26.0467 40.0661 26.1717 39.8994L26.354 39.6442C26.9113 38.8994 27.6456 38.29 28.479 37.8838C29.281 37.4931 30.1925 37.2848 31.0675 37.2848C31.6821 37.2848 32.2967 37.3786 32.88 37.5713C33.4894 37.7692 34.0571 38.0609 34.5727 38.4411C35.2081 38.915 35.729 39.4984 36.13 40.1806C36.5102 40.8369 36.7602 41.5504 36.8696 42.3004C36.9477 42.8213 36.9529 43.3473 36.8904 43.8629C36.8644 44.0765 37.031 44.264 37.2446 44.2536C37.3071 44.2536 37.3696 44.2536 37.4373 44.2536C38.0206 44.2536 38.6092 44.3421 39.1717 44.5244C39.755 44.7171 40.3019 44.9984 40.7915 45.3629L41.1508 45.6338C42.9165 46.9463 43.6925 49.0973 43.3383 51.1234C43.2967 51.3838 43.4998 51.6181 43.7602 51.6129C43.7758 51.6129 43.7863 51.6129 43.8019 51.6129C44.3592 51.6129 44.906 51.7015 45.4321 51.8734C45.979 52.0504 46.4894 52.3109 46.9477 52.6598L47.88 53.3473C50.2185 55.0921 50.7029 58.4046 48.9633 60.7431L48.505 61.3577C48.2915 61.6494 48.3383 62.0609 48.63 62.2744C48.6821 62.3109 48.7394 62.3421 48.7967 62.3629C49.8383 62.7327 59.8644 66.139 62.6977 61.3577C62.8852 61.0452 62.7602 60.639 62.4321 60.4775L53.0779 55.9046C52.5102 55.6286 52.2185 54.9827 52.4008 54.3838C52.5363 53.9463 52.9165 53.5504 53.8383 53.5088C53.9373 53.5036 54.0363 53.5296 54.1248 53.5713L63.7446 58.5921C64.8227 59.1546 66.0519 59.3942 67.2602 59.2431C68.7446 59.0609 70.354 58.2952 70.4946 55.8734C70.531 55.2379 70.2081 54.639 69.656 54.3161L57.6508 47.3213C57.1821 47.0504 56.9269 46.514 57.0206 45.9827C57.104 45.4775 57.3696 44.9723 58.1092 44.9411C58.3488 44.9359 58.5883 44.9984 58.7967 45.1181L71.4113 52.4515C72.0467 52.8213 72.7706 52.9984 73.4998 52.9671C74.7654 52.9046 76.604 52.5244 77.3331 50.8786C77.9738 49.4359 77.4113 47.7379 76.0519 46.9254L62.2394 38.639C61.8331 38.3942 61.5935 37.9463 61.6248 37.4671C61.6665 36.8421 61.9842 36.1338 63.2654 36.3369C63.4217 36.3629 63.5727 36.4202 63.7081 36.5036L79.3956 45.8525C80.5623 46.5504 81.9946 46.665 83.2394 46.1286C84.1717 45.7327 84.9946 44.9775 85.0415 43.5556Z" fill="#4D6C4A"/>
<path d="M90.7759 33.4619L77.6821 10.0296C77.578 9.84214 77.3592 9.7536 77.1561 9.8161C76.2134 10.0921 75.0363 10.3786 74.8696 10.3994C74.3592 10.4619 73.854 10.4932 73.3436 10.4932C71.6196 10.4932 69.9009 10.1494 68.2707 9.59214C64.4738 8.29006 59.7602 7.90985 55.5519 7.90985C52.4373 7.90985 49.604 8.11819 47.63 8.30568C45.9998 8.45673 44.4217 8.57652 42.8436 9.04006C41.3592 9.47756 40.0936 10.488 39.0571 11.6078C38.7811 11.9046 38.5155 12.2067 38.2498 12.514C37.1925 13.7536 36.2082 15.0765 35.2759 16.4046C33.9061 18.3474 29.5363 23.6755 32.7238 25.7015C33.2915 26.0609 33.9634 26.2067 34.6405 26.2067C34.8644 26.2067 35.0936 26.1911 35.3123 26.1599C37.8644 25.8109 40.1457 24.2901 41.9373 22.514C42.8019 21.6494 43.5832 20.6963 44.2707 19.6859C44.3905 19.514 44.8592 18.4828 45.0571 18.4307L49.4321 17.2796L50.8957 16.8994C50.9321 16.889 50.9738 16.8838 51.0155 16.8838C51.0936 16.8838 51.1665 16.9046 51.2394 16.9411C53.4946 18.1651 73.1561 28.9463 84.4373 38.6859C84.4425 38.6859 84.4425 38.6859 84.4425 38.6859C84.5988 38.8213 84.828 38.8213 84.9842 38.6911L90.7498 33.9515C90.854 33.8057 90.8644 33.6182 90.7759 33.4619Z" fill="#4D6C4A"/>
</svg>
