<svg xmlns="http://www.w3.org/2000/svg" xmlns:xlink="http://www.w3.org/1999/xlink" width="1366" zoomAndPan="magnify" viewBox="0 0 1024.5 2291.250009" height="3055" preserveAspectRatio="xMidYMid meet" version="1.0"><defs><filter x="0%" y="0%" width="100%" height="100%" id="eade750bbb"><feColorMatrix values="0 0 0 0 1 0 0 0 0 1 0 0 0 0 1 0 0 0 1 0" color-interpolation-filters="sRGB"/></filter><clipPath id="7b2f38855f"><path d="M 0 0.183594 L 1024 0.183594 L 1024 2290.316406 L 0 2290.316406 Z M 0 0.183594 " clip-rule="nonzero"/></clipPath><clipPath id="8fbb3d72c1"><path d="M 709 285 L 913.621094 285 L 913.621094 490.046875 L 709 490.046875 Z M 709 285 " clip-rule="nonzero"/></clipPath><clipPath id="fd60173d7d"><path d="M 709 80.746094 L 913.621094 80.746094 L 913.621094 286 L 709 286 Z M 709 80.746094 " clip-rule="nonzero"/></clipPath><clipPath id="e35f758fe0"><path d="M 504.320312 80.746094 L 710 80.746094 L 710 286 L 504.320312 286 Z M 504.320312 80.746094 " clip-rule="nonzero"/></clipPath><clipPath id="9ad8388fa7"><path d="M 504.320312 387 L 607 387 L 607 490.046875 L 504.320312 490.046875 Z M 504.320312 387 " clip-rule="nonzero"/></clipPath><clipPath id="616e9f948e"><path d="M 606 387 L 710 387 L 710 490.046875 L 606 490.046875 Z M 606 387 " clip-rule="nonzero"/></clipPath><clipPath id="7e01e89409"><path d="M 504.320312 285 L 607 285 L 607 388 L 504.320312 388 Z M 504.320312 285 " clip-rule="nonzero"/></clipPath><clipPath id="f0fec807c6"><path d="M 428 83 L 450.085938 83 L 450.085938 104 L 428 104 Z M 428 83 " clip-rule="nonzero"/></clipPath><clipPath id="dc79ff5711"><path d="M 431 67.425781 L 446 67.425781 L 446 82 L 431 82 Z M 431 67.425781 " clip-rule="nonzero"/></clipPath><clipPath id="3896dfddbf"><path d="M 393.113281 83 L 415 83 L 415 104 L 393.113281 104 Z M 393.113281 83 " clip-rule="nonzero"/></clipPath><clipPath id="7584c978b9"><path d="M 397 67.425781 L 412 67.425781 L 412 82 L 397 82 Z M 397 67.425781 " clip-rule="nonzero"/></clipPath><clipPath id="fe823063ee"><path d="M 411.234375 164.6875 L 419 164.6875 L 419 173.164062 L 411.234375 173.164062 Z M 411.234375 164.6875 " clip-rule="nonzero"/></clipPath><clipPath id="5cba073ea3"><path d="M 383.226562 124.234375 L 402 124.234375 L 402 150 L 383.226562 150 Z M 383.226562 124.234375 " clip-rule="nonzero"/></clipPath><clipPath id="40e49fa983"><path d="M 442.253906 125.347656 L 460.113281 125.347656 L 460.113281 150.4375 L 442.253906 150.4375 Z M 442.253906 125.347656 " clip-rule="nonzero"/></clipPath><clipPath id="ba4d2b75c0"><path d="M 410 214.507812 L 434 214.507812 L 434 243 L 410 243 Z M 410 214.507812 " clip-rule="nonzero"/></clipPath><clipPath id="c329e10e74"><path d="M 400.074219 245 L 443.554688 245 L 443.554688 262.484375 L 400.074219 262.484375 Z M 400.074219 245 " clip-rule="nonzero"/></clipPath><clipPath id="31f3b14aed"><path d="M 288 63.304688 L 298 63.304688 L 298 110 L 288 110 Z M 288 63.304688 " clip-rule="nonzero"/></clipPath><clipPath id="1ee95a11d5"><path d="M 283 63.304688 L 289 63.304688 L 289 110 L 283 110 Z M 283 63.304688 " clip-rule="nonzero"/></clipPath><clipPath id="b24c1a276d"><path d="M 270.328125 109 L 311.558594 109 L 311.558594 114.277344 L 270.328125 114.277344 Z M 270.328125 109 " clip-rule="nonzero"/></clipPath><mask id="f3559bef5b"><g filter="url(#eade750bbb)"><rect x="-102.45" width="1229.4" fill="#000000" y="-229.125001" height="2749.500011" fill-opacity="0.98"/></g></mask><clipPath id="d76f18e629"><path d="M 311 0.792969 L 409.929688 0.792969 L 409.929688 206 L 311 206 Z M 311 0.792969 " clip-rule="nonzero"/></clipPath><clipPath id="0d91eb91d4"><path d="M 0.628906 0.792969 L 206 0.792969 L 206 100 L 0.628906 100 Z M 0.628906 0.792969 " clip-rule="nonzero"/></clipPath><clipPath id="253e212c57"><path d="M 0.628906 205 L 100 205 L 100 410.09375 L 0.628906 410.09375 Z M 0.628906 205 " clip-rule="nonzero"/></clipPath><clipPath id="cf77e75bce"><path d="M 205 311 L 409.929688 311 L 409.929688 410.09375 L 205 410.09375 Z M 205 311 " clip-rule="nonzero"/></clipPath><clipPath id="f67a7b1b7c"><path d="M 205 205 L 409.929688 205 L 409.929688 305 L 205 305 Z M 205 205 " clip-rule="nonzero"/></clipPath><clipPath id="1336ffe30f"><path d="M 205 0.792969 L 305 0.792969 L 305 206 L 205 206 Z M 205 0.792969 " clip-rule="nonzero"/></clipPath><clipPath id="4fb96cb8a6"><path d="M 0.628906 106 L 206 106 L 206 206 L 0.628906 206 Z M 0.628906 106 " clip-rule="nonzero"/></clipPath><clipPath id="53a0cf1361"><path d="M 106 205 L 206 205 L 206 410.09375 L 106 410.09375 Z M 106 205 " clip-rule="nonzero"/></clipPath><clipPath id="11e527d48a"><rect x="0" width="411" y="0" height="411"/></clipPath><clipPath id="fd28eed921"><path d="M 281 137.292969 L 313.386719 137.292969 L 313.386719 170 L 281 170 Z M 281 137.292969 " clip-rule="nonzero"/></clipPath><clipPath id="a3630ea33c"><path d="M 270 164 L 292 164 L 292 184.519531 L 270 184.519531 Z M 270 164 " clip-rule="nonzero"/></clipPath><clipPath id="ab83ebdbc9"><path d="M 265.410156 151 L 281 151 L 281 167 L 265.410156 167 Z M 265.410156 151 " clip-rule="nonzero"/></clipPath><clipPath id="ea6c132499"><path d="M 300.769531 220.117188 L 319.511719 220.117188 L 319.511719 238.859375 L 300.769531 238.859375 Z M 300.769531 220.117188 " clip-rule="nonzero"/></clipPath><clipPath id="27c151b4a5"><path d="M 262.4375 220.117188 L 280.429688 220.117188 L 280.429688 238.859375 L 262.4375 238.859375 Z M 262.4375 220.117188 " clip-rule="nonzero"/></clipPath></defs><g clip-path="url(#7b2f38855f)"><path fill="#ffffff" d="M 0 0.183594 L 1024 0.183594 L 1024 2290.316406 L 0 2290.316406 Z M 0 0.183594 " fill-opacity="1" fill-rule="nonzero"/><path fill="#ffffff" d="M 0 0.183594 L 1024 0.183594 L 1024 2290.316406 L 0 2290.316406 Z M 0 0.183594 " fill-opacity="1" fill-rule="nonzero"/></g><g clip-path="url(#8fbb3d72c1)"><path fill="#e7efe7" d="M 811.539062 490.367188 L 913.941406 490.367188 L 913.941406 387.96875 C 857.386719 387.96875 811.539062 342.117188 811.539062 285.558594 L 709.132812 285.558594 L 709.132812 387.96875 C 765.691406 387.96875 811.539062 433.816406 811.539062 490.367188 Z M 811.539062 285.558594 L 913.941406 285.558594 L 913.941406 387.96875 C 857.386719 387.96875 811.539062 433.816406 811.539062 490.367188 L 709.132812 490.367188 L 709.132812 387.96875 C 765.691406 387.96875 811.539062 342.117188 811.539062 285.558594 Z M 811.539062 285.558594 " fill-opacity="1" fill-rule="evenodd"/></g><g clip-path="url(#fd60173d7d)"><path fill="#4d6c4a" d="M 913.941406 285.558594 L 913.941406 80.746094 L 709.132812 80.746094 C 709.132812 193.859375 800.828125 285.558594 913.941406 285.558594 Z M 913.941406 285.558594 " fill-opacity="1" fill-rule="evenodd"/></g><g clip-path="url(#e35f758fe0)"><path fill="#e7efe7" d="M 606.722656 80.746094 C 550.167969 80.746094 504.320312 126.59375 504.320312 183.15625 C 504.320312 239.710938 550.167969 285.558594 606.722656 285.558594 C 663.28125 285.558594 709.132812 239.710938 709.132812 183.15625 C 709.132812 126.597656 663.28125 80.746094 606.722656 80.746094 Z M 606.722656 133.558594 C 579.339844 133.558594 557.132812 155.765625 557.132812 183.15625 C 557.132812 210.539062 579.339844 232.746094 606.722656 232.746094 C 634.113281 232.746094 656.316406 210.539062 656.316406 183.15625 C 656.316406 155.765625 634.113281 133.558594 606.722656 133.558594 Z M 606.722656 133.558594 " fill-opacity="1" fill-rule="evenodd"/></g><g clip-path="url(#9ad8388fa7)"><path fill="#e7efe7" d="M 504.320312 387.96875 C 504.320312 444.519531 550.167969 490.367188 606.722656 490.367188 C 606.722656 433.816406 560.878906 387.96875 504.320312 387.96875 Z M 504.320312 387.96875 " fill-opacity="1" fill-rule="evenodd"/></g><g clip-path="url(#616e9f948e)"><path fill="#e7efe7" d="M 709.132812 387.96875 C 709.132812 444.519531 663.28125 490.367188 606.722656 490.367188 C 606.722656 433.816406 652.570312 387.96875 709.132812 387.96875 Z M 709.132812 387.96875 " fill-opacity="1" fill-rule="evenodd"/></g><g clip-path="url(#7e01e89409)"><path fill="#4d6c4a" d="M 504.320312 285.558594 C 504.320312 342.117188 550.167969 387.96875 606.722656 387.96875 C 606.722656 331.40625 560.878906 285.558594 504.320312 285.558594 Z M 504.320312 285.558594 " fill-opacity="1" fill-rule="evenodd"/></g><path fill="#e7efe7" d="M 709.132812 285.558594 C 709.132812 342.117188 663.28125 387.96875 606.722656 387.96875 C 606.722656 331.40625 652.570312 285.558594 709.132812 285.558594 Z M 709.132812 285.558594 " fill-opacity="1" fill-rule="evenodd"/><path fill="#4d6c4a" d="M 424.65625 89.5 L 418.714844 89.5 C 414.074219 89.5 410.3125 93.257812 410.3125 97.898438 L 410.3125 107.464844 C 417.652344 110.140625 425.710938 110.140625 433.046875 107.464844 L 433.046875 97.898438 C 433.058594 93.257812 429.296875 89.5 424.65625 89.5 Z M 424.65625 89.5 " fill-opacity="1" fill-rule="nonzero"/><path fill="#4d6c4a" d="M 428.578125 79.851562 C 428.578125 80.304688 428.535156 80.753906 428.445312 81.195312 C 428.355469 81.640625 428.226562 82.070312 428.054688 82.488281 C 427.878906 82.90625 427.667969 83.304688 427.417969 83.679688 C 427.164062 84.058594 426.878906 84.40625 426.558594 84.726562 C 426.238281 85.046875 425.890625 85.332031 425.515625 85.582031 C 425.140625 85.832031 424.742188 86.046875 424.324219 86.21875 C 423.90625 86.390625 423.472656 86.523438 423.03125 86.613281 C 422.585938 86.699219 422.136719 86.742188 421.6875 86.742188 C 421.234375 86.742188 420.785156 86.699219 420.339844 86.613281 C 419.898438 86.523438 419.464844 86.390625 419.046875 86.21875 C 418.628906 86.046875 418.234375 85.832031 417.855469 85.582031 C 417.480469 85.332031 417.132812 85.046875 416.8125 84.726562 C 416.492188 84.40625 416.207031 84.058594 415.957031 83.679688 C 415.703125 83.304688 415.492188 82.90625 415.320312 82.488281 C 415.144531 82.070312 415.015625 81.640625 414.925781 81.195312 C 414.839844 80.753906 414.792969 80.304688 414.792969 79.851562 C 414.792969 79.398438 414.839844 78.949219 414.925781 78.507812 C 415.015625 78.0625 415.144531 77.632812 415.320312 77.214844 C 415.492188 76.796875 415.703125 76.398438 415.957031 76.023438 C 416.207031 75.648438 416.492188 75.296875 416.8125 74.976562 C 417.132812 74.660156 417.480469 74.371094 417.855469 74.121094 C 418.234375 73.871094 418.628906 73.65625 419.046875 73.484375 C 419.464844 73.3125 419.898438 73.179688 420.339844 73.09375 C 420.785156 73.003906 421.234375 72.960938 421.6875 72.960938 C 422.136719 72.960938 422.585938 73.003906 423.03125 73.09375 C 423.472656 73.179688 423.90625 73.3125 424.324219 73.484375 C 424.742188 73.65625 425.140625 73.871094 425.515625 74.121094 C 425.890625 74.371094 426.238281 74.660156 426.558594 74.976562 C 426.878906 75.296875 427.164062 75.648438 427.417969 76.023438 C 427.667969 76.398438 427.878906 76.796875 428.054688 77.214844 C 428.226562 77.632812 428.355469 78.0625 428.445312 78.507812 C 428.535156 78.949219 428.578125 79.398438 428.578125 79.851562 Z M 428.578125 79.851562 " fill-opacity="1" fill-rule="nonzero"/><g clip-path="url(#f0fec807c6)"><path fill="#4d6c4a" d="M 441.859375 83.964844 L 435.914062 83.964844 C 432.648438 83.964844 429.8125 85.839844 428.429688 88.574219 C 432.109375 90.070312 434.714844 93.679688 434.714844 97.886719 L 434.714844 103.671875 C 439.925781 104.332031 445.265625 103.75 450.261719 101.933594 L 450.261719 92.367188 C 450.261719 87.726562 446.5 83.964844 441.859375 83.964844 Z M 441.859375 83.964844 " fill-opacity="1" fill-rule="nonzero"/></g><g clip-path="url(#dc79ff5711)"><path fill="#4d6c4a" d="M 445.78125 74.320312 C 445.78125 74.773438 445.734375 75.21875 445.648438 75.664062 C 445.558594 76.109375 445.429688 76.539062 445.253906 76.957031 C 445.082031 77.375 444.871094 77.773438 444.617188 78.148438 C 444.367188 78.523438 444.082031 78.875 443.761719 79.191406 C 443.441406 79.511719 443.09375 79.800781 442.714844 80.050781 C 442.339844 80.300781 441.941406 80.515625 441.523438 80.6875 C 441.105469 80.859375 440.675781 80.992188 440.230469 81.078125 C 439.789062 81.167969 439.339844 81.210938 438.886719 81.210938 C 438.433594 81.210938 437.988281 81.167969 437.542969 81.078125 C 437.097656 80.992188 436.667969 80.859375 436.25 80.6875 C 435.832031 80.515625 435.433594 80.300781 435.058594 80.050781 C 434.683594 79.800781 434.335938 79.511719 434.015625 79.191406 C 433.695312 78.875 433.410156 78.523438 433.15625 78.148438 C 432.90625 77.773438 432.691406 77.375 432.519531 76.957031 C 432.347656 76.539062 432.214844 76.109375 432.128906 75.664062 C 432.039062 75.21875 431.996094 74.773438 431.996094 74.320312 C 431.996094 73.867188 432.039062 73.417969 432.128906 72.976562 C 432.214844 72.53125 432.347656 72.101562 432.519531 71.683594 C 432.691406 71.265625 432.90625 70.867188 433.15625 70.492188 C 433.410156 70.113281 433.695312 69.765625 434.015625 69.445312 C 434.335938 69.125 434.683594 68.839844 435.058594 68.589844 C 435.433594 68.339844 435.832031 68.125 436.25 67.953125 C 436.667969 67.78125 437.097656 67.648438 437.542969 67.558594 C 437.988281 67.472656 438.433594 67.429688 438.886719 67.429688 C 439.339844 67.429688 439.789062 67.472656 440.230469 67.558594 C 440.675781 67.648438 441.105469 67.78125 441.523438 67.953125 C 441.941406 68.125 442.339844 68.339844 442.714844 68.589844 C 443.09375 68.839844 443.441406 69.125 443.761719 69.445312 C 444.082031 69.765625 444.367188 70.113281 444.617188 70.492188 C 444.871094 70.867188 445.082031 71.265625 445.253906 71.683594 C 445.429688 72.101562 445.558594 72.53125 445.648438 72.976562 C 445.734375 73.417969 445.78125 73.867188 445.78125 74.320312 Z M 445.78125 74.320312 " fill-opacity="1" fill-rule="nonzero"/></g><g clip-path="url(#3896dfddbf)"><path fill="#4d6c4a" d="M 414.941406 88.585938 C 413.558594 85.851562 410.726562 83.976562 407.457031 83.976562 L 401.511719 83.976562 C 396.871094 83.964844 393.113281 87.726562 393.113281 92.367188 L 393.113281 101.933594 C 398.117188 103.761719 403.445312 104.332031 408.65625 103.671875 L 408.65625 97.886719 C 408.65625 93.679688 411.261719 90.070312 414.941406 88.585938 Z M 414.941406 88.585938 " fill-opacity="1" fill-rule="nonzero"/></g><g clip-path="url(#7584c978b9)"><path fill="#4d6c4a" d="M 411.375 74.320312 C 411.375 74.773438 411.332031 75.21875 411.242188 75.664062 C 411.15625 76.109375 411.023438 76.539062 410.851562 76.957031 C 410.679688 77.375 410.464844 77.773438 410.214844 78.148438 C 409.964844 78.523438 409.679688 78.875 409.359375 79.191406 C 409.039062 79.511719 408.691406 79.800781 408.3125 80.050781 C 407.9375 80.300781 407.539062 80.515625 407.121094 80.6875 C 406.703125 80.859375 406.273438 80.992188 405.828125 81.078125 C 405.386719 81.167969 404.9375 81.210938 404.484375 81.210938 C 404.03125 81.210938 403.582031 81.167969 403.140625 81.078125 C 402.695312 80.992188 402.265625 80.859375 401.847656 80.6875 C 401.429688 80.515625 401.03125 80.300781 400.65625 80.050781 C 400.277344 79.800781 399.929688 79.511719 399.609375 79.191406 C 399.292969 78.875 399.003906 78.523438 398.753906 78.148438 C 398.503906 77.773438 398.289062 77.375 398.117188 76.957031 C 397.945312 76.539062 397.8125 76.109375 397.726562 75.664062 C 397.636719 75.21875 397.59375 74.773438 397.59375 74.320312 C 397.59375 73.867188 397.636719 73.417969 397.726562 72.976562 C 397.8125 72.53125 397.945312 72.101562 398.117188 71.683594 C 398.289062 71.265625 398.503906 70.867188 398.753906 70.492188 C 399.003906 70.113281 399.292969 69.765625 399.609375 69.445312 C 399.929688 69.125 400.277344 68.839844 400.65625 68.589844 C 401.03125 68.339844 401.429688 68.125 401.847656 67.953125 C 402.265625 67.78125 402.695312 67.648438 403.140625 67.558594 C 403.582031 67.472656 404.03125 67.429688 404.484375 67.429688 C 404.9375 67.429688 405.386719 67.472656 405.828125 67.558594 C 406.273438 67.648438 406.703125 67.78125 407.121094 67.953125 C 407.539062 68.125 407.9375 68.339844 408.3125 68.589844 C 408.691406 68.839844 409.039062 69.125 409.359375 69.445312 C 409.679688 69.765625 409.964844 70.113281 410.214844 70.492188 C 410.464844 70.867188 410.679688 71.265625 410.851562 71.683594 C 411.023438 72.101562 411.15625 72.53125 411.242188 72.976562 C 411.332031 73.417969 411.375 73.867188 411.375 74.320312 Z M 411.375 74.320312 " fill-opacity="1" fill-rule="nonzero"/></g><path fill="#4d6c4a" d="M 409.320312 160.179688 L 405.480469 165.339844 C 404.664062 166.433594 404.894531 167.992188 405.988281 168.808594 L 406.257812 169.007812 C 406.699219 169.335938 407.21875 169.496094 407.730469 169.496094 C 408.488281 169.496094 409.238281 169.152344 409.726562 168.5 L 413.566406 163.339844 C 414.378906 162.25 414.152344 160.6875 413.058594 159.875 L 412.789062 159.671875 C 412.34375 159.34375 411.828125 159.183594 411.3125 159.183594 C 410.554688 159.183594 409.804688 159.527344 409.320312 160.179688 " fill-opacity="1" fill-rule="nonzero"/><g clip-path="url(#fe823063ee)"><path fill="#4d6c4a" d="M 414.3125 165.597656 L 411.691406 169.117188 C 410.964844 170.089844 411.167969 171.484375 412.144531 172.210938 L 412.839844 172.730469 C 413.234375 173.023438 413.699219 173.164062 414.160156 173.164062 C 414.835938 173.164062 415.503906 172.859375 415.9375 172.277344 L 418.558594 168.757812 C 419.285156 167.78125 419.078125 166.390625 418.101562 165.664062 L 417.40625 165.144531 C 417.011719 164.851562 416.550781 164.707031 416.089844 164.707031 C 415.414062 164.707031 414.742188 165.015625 414.3125 165.597656 " fill-opacity="1" fill-rule="nonzero"/></g><path fill="#4d6c4a" d="M 400.308594 154.113281 L 399.25 153.328125 C 398.898438 153.0625 398.480469 152.933594 398.066406 152.933594 C 397.460938 152.9375 396.859375 153.210938 396.46875 153.734375 L 394.707031 156.101562 C 394.054688 156.980469 394.238281 158.230469 395.113281 158.882812 L 396.171875 159.671875 C 396.523438 159.933594 396.941406 160.0625 397.355469 160.0625 C 397.960938 160.0625 398.5625 159.785156 398.953125 159.261719 L 400.714844 156.894531 C 401.367188 156.019531 401.183594 154.765625 400.308594 154.113281 " fill-opacity="1" fill-rule="nonzero"/><path fill="#4d6c4a" d="M 408.121094 154.480469 C 407.648438 154.128906 407.09375 153.957031 406.542969 153.957031 C 405.730469 153.957031 404.929688 154.324219 404.410156 155.023438 L 399.722656 161.316406 C 398.851562 162.488281 399.097656 164.15625 400.265625 165.027344 C 400.738281 165.378906 401.292969 165.550781 401.84375 165.550781 C 402.578125 165.550781 403.300781 165.25 403.816406 164.679688 C 403.894531 164.546875 403.980469 164.417969 404.074219 164.292969 L 406.296875 161.304688 L 407.914062 159.132812 C 408.023438 158.984375 408.144531 158.84375 408.273438 158.710938 L 408.664062 158.1875 C 409.535156 157.019531 409.289062 155.351562 408.121094 154.480469 " fill-opacity="1" fill-rule="nonzero"/><g clip-path="url(#5cba073ea3)"><path fill="#4d6c4a" d="M 394.917969 125.105469 L 383.617188 145.324219 C 383.261719 145.964844 383.488281 146.773438 384.128906 147.132812 L 388.03125 149.3125 C 388.671875 149.667969 389.484375 149.441406 389.839844 148.800781 L 401.140625 128.582031 C 401.496094 127.941406 401.269531 127.132812 400.628906 126.773438 L 396.726562 124.59375 C 396.085938 124.234375 395.273438 124.464844 394.917969 125.105469 " fill-opacity="1" fill-rule="nonzero"/></g><g clip-path="url(#40e49fa983)"><path fill="#4d6c4a" d="M 442.425781 129.519531 L 453.722656 149.734375 C 454.082031 150.375 454.890625 150.605469 455.53125 150.246094 L 459.433594 148.066406 C 460.074219 147.707031 460.300781 146.898438 459.945312 146.257812 L 448.648438 126.039062 C 448.289062 125.398438 447.480469 125.171875 446.839844 125.527344 L 442.9375 127.710938 C 442.296875 128.066406 442.066406 128.878906 442.425781 129.519531 " fill-opacity="1" fill-rule="nonzero"/></g><path fill="#4d6c4a" d="M 447.035156 156.90625 C 447.066406 155.972656 446.628906 155.085938 445.886719 154.523438 L 440.023438 150.078125 C 437.902344 148.585938 435.257812 146.875 432.164062 144.996094 C 427.804688 142.34375 423.691406 140.046875 421.785156 139 C 421.488281 138.835938 421.140625 138.792969 420.8125 138.878906 L 418.667969 139.441406 C 418.351562 139.523438 418.078125 139.71875 417.894531 139.984375 L 417.894531 139.988281 C 417.300781 140.859375 416.636719 141.660156 415.929688 142.363281 C 415.097656 143.191406 414.210938 143.878906 413.300781 144.410156 C 412.210938 145.042969 411.085938 145.441406 409.960938 145.59375 C 409.710938 145.628906 409.460938 145.648438 409.21875 145.648438 C 408.335938 145.648438 407.511719 145.421875 406.839844 144.992188 C 405.976562 144.445312 405.421875 143.640625 405.238281 142.667969 C 405.027344 141.542969 405.316406 140.257812 406.128906 138.742188 C 406.703125 137.671875 407.414062 136.695312 407.933594 135.980469 C 408.0625 135.804688 408.171875 135.65625 408.261719 135.527344 C 408.621094 135.019531 409.039062 134.4375 409.507812 133.828125 C 409.625 133.671875 409.5 133.449219 409.304688 133.46875 C 408.320312 133.582031 406.09375 133.472656 402.59375 131.300781 C 402.28125 131.109375 401.875 131.214844 401.695312 131.535156 L 391.988281 148.902344 C 391.785156 149.265625 391.835938 149.71875 392.113281 150.03125 L 394.6875 152.925781 C 394.722656 152.96875 394.761719 153.003906 394.804688 153.035156 L 395.0625 152.6875 C 395.417969 152.210938 395.882812 151.824219 396.417969 151.5625 C 396.925781 151.3125 397.5 151.183594 398.066406 151.183594 C 398.460938 151.183594 398.851562 151.242188 399.222656 151.363281 C 399.609375 151.488281 399.972656 151.675781 400.296875 151.921875 L 401.355469 152.707031 C 401.757812 153.007812 402.09375 153.378906 402.347656 153.816406 C 402.40625 153.917969 402.460938 154.023438 402.511719 154.128906 C 402.574219 154.269531 402.769531 154.289062 402.863281 154.164062 L 403.003906 153.976562 C 403.417969 153.417969 403.96875 152.960938 404.59375 152.652344 C 405.195312 152.359375 405.878906 152.203125 406.539062 152.203125 C 406.996094 152.203125 407.460938 152.277344 407.898438 152.417969 C 408.355469 152.566406 408.78125 152.785156 409.167969 153.074219 C 409.644531 153.425781 410.035156 153.867188 410.335938 154.375 C 410.621094 154.867188 410.808594 155.402344 410.890625 155.96875 C 410.949219 156.359375 410.953125 156.753906 410.90625 157.140625 C 410.886719 157.300781 411.011719 157.441406 411.171875 157.433594 C 411.21875 157.433594 411.265625 157.433594 411.316406 157.433594 C 411.753906 157.433594 412.199219 157.5 412.617188 157.636719 C 413.054688 157.78125 413.464844 157.992188 413.832031 158.265625 L 414.105469 158.46875 C 415.425781 159.453125 416.007812 161.066406 415.746094 162.589844 C 415.710938 162.78125 415.863281 162.957031 416.058594 162.957031 C 416.070312 162.957031 416.082031 162.957031 416.09375 162.957031 C 416.507812 162.957031 416.917969 163.019531 417.316406 163.148438 C 417.726562 163.28125 418.109375 163.480469 418.453125 163.738281 L 419.148438 164.257812 C 420.90625 165.5625 421.269531 168.046875 419.964844 169.804688 L 419.621094 170.265625 C 419.457031 170.484375 419.496094 170.792969 419.714844 170.953125 C 419.753906 170.980469 419.792969 171.003906 419.839844 171.019531 C 420.621094 171.296875 428.144531 173.851562 430.269531 170.265625 C 430.410156 170.03125 430.316406 169.726562 430.070312 169.605469 L 423.050781 166.171875 C 422.628906 165.964844 422.40625 165.484375 422.542969 165.03125 C 422.644531 164.703125 422.929688 164.40625 423.625 164.378906 C 423.695312 164.375 423.769531 164.390625 423.835938 164.425781 L 431.054688 168.191406 C 431.867188 168.613281 432.785156 168.792969 433.691406 168.679688 C 434.804688 168.542969 436.015625 167.96875 436.121094 166.152344 C 436.148438 165.675781 435.902344 165.226562 435.488281 164.984375 L 426.484375 159.734375 C 426.128906 159.53125 425.941406 159.128906 426.007812 158.726562 C 426.070312 158.351562 426.273438 157.96875 426.824219 157.949219 C 427.007812 157.945312 427.183594 157.992188 427.34375 158.082031 L 436.808594 163.585938 C 437.28125 163.859375 437.828125 163.996094 438.375 163.96875 C 439.324219 163.925781 440.703125 163.636719 441.25 162.40625 C 441.730469 161.320312 441.308594 160.050781 440.289062 159.4375 L 429.925781 153.222656 C 429.621094 153.039062 429.441406 152.699219 429.464844 152.34375 C 429.496094 151.871094 429.734375 151.339844 430.695312 151.496094 C 430.8125 151.511719 430.925781 151.554688 431.027344 151.617188 L 442.800781 158.632812 C 443.675781 159.15625 444.746094 159.242188 445.683594 158.839844 C 446.378906 158.542969 447 157.976562 447.035156 156.90625 " fill-opacity="1" fill-rule="nonzero"/><path fill="#4d6c4a" d="M 451.339844 149.335938 L 441.511719 131.753906 C 441.433594 131.613281 441.269531 131.546875 441.117188 131.59375 C 440.410156 131.804688 439.527344 132.015625 439.398438 132.03125 C 439.019531 132.078125 438.640625 132.101562 438.257812 132.101562 C 436.964844 132.101562 435.671875 131.84375 434.449219 131.425781 C 431.605469 130.449219 428.0625 130.164062 424.90625 130.164062 C 422.570312 130.164062 420.445312 130.320312 418.964844 130.460938 C 417.742188 130.574219 416.554688 130.664062 415.371094 131.011719 C 414.257812 131.339844 413.308594 132.101562 412.53125 132.941406 C 412.328125 133.160156 412.125 133.386719 411.925781 133.621094 C 411.132812 134.550781 410.394531 135.542969 409.695312 136.539062 C 408.667969 137.996094 405.390625 141.992188 407.78125 143.511719 C 408.207031 143.785156 408.710938 143.894531 409.21875 143.894531 C 409.386719 143.894531 409.558594 143.882812 409.722656 143.859375 C 411.636719 143.597656 413.351562 142.457031 414.691406 141.121094 C 415.34375 140.476562 415.929688 139.757812 416.445312 139 C 416.535156 138.871094 416.886719 138.09375 417.035156 138.054688 L 420.316406 137.195312 L 421.414062 136.910156 C 421.445312 136.902344 421.472656 136.898438 421.503906 136.898438 C 421.5625 136.898438 421.621094 136.910156 421.671875 136.9375 C 423.363281 137.855469 438.117188 145.949219 446.582031 153.253906 C 446.582031 153.253906 446.585938 153.257812 446.585938 153.257812 C 446.703125 153.355469 446.875 153.355469 446.992188 153.257812 L 451.316406 149.703125 C 451.394531 149.59375 451.402344 149.453125 451.339844 149.335938 " fill-opacity="1" fill-rule="nonzero"/><g clip-path="url(#ba4d2b75c0)"><path fill="#4d6c4a" d="M 412.636719 227.363281 C 412.671875 227.355469 412.707031 227.351562 412.722656 227.34375 L 412.9375 227.304688 L 412.9375 226.664062 C 412.9375 226.222656 413 225.789062 413.117188 225.378906 C 413.503906 223.988281 414.523438 222.8125 415.9375 222.386719 C 416.09375 222.339844 416.261719 222.300781 416.421875 222.273438 C 416.441406 222.3125 416.457031 222.355469 416.484375 222.386719 C 416.492188 222.40625 416.503906 222.421875 416.511719 222.433594 C 416.613281 222.6875 416.757812 222.925781 416.9375 223.125 C 418.148438 224.941406 419.777344 226.394531 421.636719 227.390625 C 424.148438 228.746094 427.097656 229.28125 430.039062 228.769531 C 430.195312 228.746094 430.339844 228.71875 430.496094 228.683594 C 430.703125 228.644531 430.914062 228.589844 431.128906 228.542969 L 431.132812 228.644531 C 431.140625 228.824219 431.140625 229.03125 431.121094 229.273438 C 431.105469 229.554688 431.0625 229.828125 431.011719 230.148438 C 430.988281 230.308594 430.964844 230.480469 430.941406 230.652344 C 430.867188 231.257812 430.710938 231.960938 430.121094 232.503906 C 430.042969 232.574219 429.96875 232.636719 429.886719 232.707031 L 429.804688 232.773438 C 429.585938 232.964844 429.335938 233.171875 429.136719 233.421875 C 428.875 233.746094 428.78125 234.121094 428.6875 234.503906 C 428.644531 234.6875 428.597656 234.878906 428.527344 235.054688 C 428.285156 235.660156 428.027344 236.175781 427.75 236.621094 C 427.148438 237.605469 426.332031 238.464844 425.394531 239.101562 C 425.167969 239.253906 424.929688 239.394531 424.679688 239.535156 C 422.65625 240.664062 420.53125 240.5625 418.503906 239.546875 L 418.480469 239.53125 C 418.242188 239.402344 418.003906 239.257812 417.773438 239.101562 C 416.023438 237.910156 414.828125 236.105469 414.234375 233.792969 C 414.207031 233.6875 414.148438 233.410156 413.875 233.15625 L 413.769531 233.0625 L 413.65625 233 C 412.640625 232.453125 412.316406 231.421875 412.21875 230.648438 C 412.207031 230.546875 412.191406 230.449219 412.175781 230.34375 C 412.171875 230.339844 412.171875 230.328125 412.171875 230.324219 L 412.148438 230.132812 C 412.101562 229.828125 412.054688 229.554688 412.039062 229.28125 C 412.035156 229.101562 412.023438 228.875 412.035156 228.636719 L 412.027344 228.503906 C 412.003906 228.039062 412.269531 227.449219 412.636719 227.363281 Z M 410.105469 230.753906 L 410.128906 230.90625 C 410.324219 232.527344 411.082031 233.832031 412.277344 234.625 C 413.039062 237.316406 414.488281 239.410156 416.585938 240.839844 C 419.75 243 423.394531 243.003906 426.582031 240.839844 C 427.757812 240.039062 428.789062 238.964844 429.546875 237.730469 C 429.886719 237.183594 430.195312 236.566406 430.484375 235.835938 C 430.605469 235.527344 430.675781 235.25 430.746094 234.980469 C 430.769531 234.886719 430.796875 234.769531 430.820312 234.699219 C 430.902344 234.605469 431.046875 234.492188 431.179688 234.375 L 431.261719 234.308594 C 431.347656 234.230469 431.4375 234.148438 431.539062 234.0625 C 432.664062 233.03125 432.929688 231.769531 433.03125 230.917969 C 433.054688 230.761719 433.074219 230.613281 433.101562 230.445312 C 433.148438 230.132812 433.199219 229.773438 433.222656 229.40625 C 433.246094 229.105469 433.246094 228.839844 433.242188 228.589844 C 433.253906 228.335938 433.246094 226.632812 433.246094 226.628906 C 433.246094 223.6875 432.695312 220.472656 430.757812 218.113281 C 428.589844 215.484375 424.984375 214.535156 421.695312 214.585938 C 418.46875 214.640625 415.242188 215.710938 413.085938 217.742188 C 411.363281 219.371094 410.605469 221.652344 410.324219 223.957031 C 410.296875 224.1875 410.226562 225.652344 410.167969 227.167969 C 410.109375 228.625 410.066406 230.132812 410.089844 230.605469 C 410.089844 230.703125 410.09375 230.753906 410.105469 230.753906 " fill-opacity="1" fill-rule="nonzero"/></g><g clip-path="url(#c329e10e74)"><path fill="#4d6c4a" d="M 443.179688 261.308594 C 443.179688 261.277344 443.175781 261.25 443.171875 261.21875 C 442.804688 258.046875 442.46875 254.867188 442.128906 251.695312 C 442.101562 251.453125 442.074219 251.230469 442.039062 251.023438 C 441.960938 250.484375 441.839844 250.039062 441.648438 249.667969 C 441.515625 249.386719 441.347656 249.15625 441.136719 248.945312 C 440.875 248.832031 440.589844 248.730469 440.28125 248.617188 C 440.265625 248.617188 440.242188 248.609375 440.226562 248.609375 C 439.082031 248.21875 437.914062 247.882812 436.761719 247.539062 C 435.710938 247.234375 434.65625 246.9375 433.597656 246.644531 C 431.1875 245.835938 428.921875 245.085938 428.785156 245.074219 C 428.75 245.207031 428.714844 245.347656 428.675781 245.46875 C 428.386719 246.550781 428.105469 247.628906 427.808594 248.703125 C 427.585938 249.515625 427.359375 250.316406 427.113281 251.121094 C 426.429688 253.324219 425.664062 255.503906 424.898438 257.683594 C 424.890625 257.710938 424.882812 257.734375 424.871094 257.757812 C 424.785156 258.007812 424.667969 258.238281 424.550781 258.476562 C 424.488281 258.0625 424.339844 256.488281 424.1875 254.796875 C 423.972656 252.410156 423.746094 249.777344 423.746094 249.777344 L 424.578125 248.015625 C 424.652344 247.859375 424.648438 247.671875 424.566406 247.511719 L 424.113281 246.628906 C 424.015625 246.441406 423.820312 246.320312 423.605469 246.320312 L 419.726562 246.320312 C 419.507812 246.320312 419.3125 246.441406 419.214844 246.628906 L 418.761719 247.511719 C 418.679688 247.671875 418.679688 247.859375 418.753906 248.015625 L 419.585938 249.777344 C 419.585938 249.777344 419.359375 252.410156 419.140625 254.796875 C 418.988281 256.488281 418.839844 258.0625 418.78125 258.476562 C 418.660156 258.238281 418.542969 258.007812 418.460938 257.757812 C 418.449219 257.734375 418.4375 257.710938 418.433594 257.683594 C 417.667969 255.503906 416.902344 253.324219 416.214844 251.121094 C 415.972656 250.316406 415.742188 249.515625 415.523438 248.703125 C 415.222656 247.628906 414.941406 246.550781 414.652344 245.46875 C 414.617188 245.347656 414.582031 245.207031 414.546875 245.074219 C 414.40625 245.085938 412.132812 245.839844 409.714844 246.648438 C 408.664062 246.941406 407.617188 247.234375 406.578125 247.539062 C 405.410156 247.882812 404.257812 248.21875 403.109375 248.609375 C 403.089844 248.609375 403.070312 248.617188 403.054688 248.617188 C 402.75 248.730469 402.464844 248.832031 402.203125 248.945312 C 401.992188 249.148438 401.824219 249.382812 401.6875 249.65625 C 401.5 250.027344 401.378906 250.476562 401.296875 251.023438 C 401.257812 251.230469 401.234375 251.453125 401.210938 251.695312 C 400.867188 254.867188 400.519531 258.046875 400.160156 261.21875 C 400.15625 261.25 400.152344 261.277344 400.148438 261.308594 C 400.058594 262.089844 400.664062 262.777344 401.457031 262.777344 C 401.761719 262.777344 402.117188 262.785156 402.503906 262.785156 L 402.515625 262.785156 C 402.683594 262.804688 402.78125 262.800781 402.78125 262.800781 L 440.546875 262.800781 C 440.546875 262.800781 440.644531 262.804688 440.808594 262.785156 C 440.8125 262.785156 440.8125 262.785156 440.816406 262.785156 C 441.210938 262.785156 441.566406 262.777344 441.882812 262.777344 C 442.664062 262.777344 443.277344 262.089844 443.179688 261.308594 " fill-opacity="1" fill-rule="nonzero"/></g><g clip-path="url(#31f3b14aed)"><path fill="#4d6c4a" d="M 297.398438 67.109375 L 297.398438 74.464844 L 296.128906 75.375 L 296.128906 67.925781 L 294.859375 67.378906 L 294.859375 76.289062 L 293.671875 77.144531 L 293.59375 77.203125 L 293.59375 66.839844 L 292.324219 66.292969 L 292.324219 109.984375 L 291.054688 109.984375 L 291.054688 65.75 L 289.789062 65.207031 L 289.789062 109.984375 L 288.519531 109.984375 L 288.519531 63.304688 L 289.789062 63.847656 L 291.054688 64.390625 L 293.59375 65.476562 L 294.859375 66.019531 L 296.128906 66.566406 L 297.398438 67.109375 " fill-opacity="1" fill-rule="nonzero"/></g><g clip-path="url(#1ee95a11d5)"><path fill="#323335" d="M 288.519531 63.304688 L 288.519531 109.984375 L 286.375 109.984375 L 286.375 85.238281 L 285.976562 84.957031 L 285.460938 84.582031 L 284.421875 83.835938 L 283.382812 83.085938 L 283.234375 82.976562 L 283.234375 67.109375 L 288.519531 63.304688 " fill-opacity="1" fill-rule="nonzero"/></g><path fill="#4d6c4a" d="M 305.851562 77.917969 L 305.851562 109.984375 L 304.808594 109.984375 L 304.808594 78.589844 L 303.769531 78.140625 L 303.769531 109.984375 L 302.726562 109.984375 L 302.726562 77.695312 L 301.6875 77.25 L 301.6875 109.984375 L 300.648438 109.984375 L 300.648438 76.800781 L 299.605469 76.355469 L 299.605469 109.984375 L 298.5625 109.984375 L 298.5625 74.796875 L 299.605469 75.238281 L 300.648438 75.6875 L 301.6875 76.132812 L 302.726562 76.582031 L 303.769531 77.023438 L 304.808594 77.472656 L 305.851562 77.917969 " fill-opacity="1" fill-rule="nonzero"/><path fill="#323335" d="M 298.5625 74.796875 L 298.5625 109.984375 L 294.226562 109.984375 L 294.226562 77.917969 L 294.859375 77.460938 L 296.128906 76.550781 L 297.398438 75.636719 L 298.5625 74.796875 " fill-opacity="1" fill-rule="nonzero"/><path fill="#323335" d="M 281.867188 83.167969 L 281.867188 109.984375 L 281.015625 109.984375 L 281.015625 84.449219 L 280.167969 84.8125 L 280.167969 109.984375 L 279.3125 109.984375 L 279.3125 85.179688 L 278.460938 85.546875 L 278.460938 109.984375 L 277.609375 109.984375 L 277.609375 85.910156 L 276.753906 86.277344 L 276.753906 109.984375 L 275.902344 109.984375 L 275.902344 85.726562 L 276.753906 85.363281 L 277.609375 84.996094 L 278.460938 84.628906 L 279.3125 84.265625 L 280.167969 83.902344 L 281.015625 83.53125 L 281.867188 83.167969 " fill-opacity="1" fill-rule="nonzero"/><path fill="#4d6c4a" d="M 285.421875 85.726562 L 285.421875 109.984375 L 281.871094 109.984375 L 281.871094 83.171875 L 282.828125 83.859375 L 283.234375 84.152344 L 283.867188 84.605469 L 284.902344 85.351562 L 285.421875 85.726562 " fill-opacity="1" fill-rule="nonzero"/><g clip-path="url(#b24c1a276d)"><path fill="#4d6c4a" d="M 310.160156 114.265625 L 271.589844 114.265625 C 270.722656 114.265625 270.332031 113.175781 271.003906 112.625 L 273.976562 110.195312 C 274.140625 110.058594 274.347656 109.984375 274.5625 109.984375 L 307.191406 109.984375 C 307.402344 109.984375 307.609375 110.058594 307.773438 110.195312 L 310.746094 112.625 C 311.417969 113.175781 311.03125 114.265625 310.160156 114.265625 " fill-opacity="1" fill-rule="nonzero"/></g><g mask="url(#f3559bef5b)"><g transform="matrix(1, 0, 0, 1, 66, 292)"><g clip-path="url(#11e527d48a)"><g clip-path="url(#d76f18e629)"><path fill="#e7efe7" d="M 410.214844 205.578125 L 410.214844 0.773438 C 355.28125 2.660156 311.328125 47.785156 311.328125 103.175781 C 311.328125 158.550781 355.28125 203.6875 410.214844 205.578125 Z M 410.214844 205.578125 " fill-opacity="1" fill-rule="nonzero"/></g><g clip-path="url(#0d91eb91d4)"><path fill="#e7efe7" d="M 0.609375 0.773438 L 205.414062 0.773438 C 203.527344 55.710938 158.402344 99.660156 103.011719 99.660156 C 47.632812 99.660156 2.496094 55.710938 0.609375 0.773438 Z M 0.609375 0.773438 " fill-opacity="1" fill-rule="nonzero"/></g><g clip-path="url(#253e212c57)"><path fill="#e7efe7" d="M 0.609375 410.378906 L 0.609375 205.578125 C 55.546875 207.464844 99.496094 252.585938 99.496094 307.976562 C 99.496094 363.355469 55.546875 408.492188 0.609375 410.378906 Z M 0.609375 410.378906 " fill-opacity="1" fill-rule="nonzero"/></g><g clip-path="url(#cf77e75bce)"><path fill="#e7efe7" d="M 410.214844 410.378906 L 205.414062 410.378906 C 207.300781 355.441406 252.421875 311.492188 307.816406 311.492188 C 363.191406 311.492188 408.328125 355.441406 410.214844 410.378906 Z M 410.214844 410.378906 " fill-opacity="1" fill-rule="nonzero"/></g><g clip-path="url(#f67a7b1b7c)"><path fill="#e7efe7" d="M 205.414062 205.578125 L 410.214844 205.578125 C 408.328125 260.511719 363.207031 304.460938 307.816406 304.460938 C 252.4375 304.460938 207.300781 260.511719 205.414062 205.578125 Z M 205.414062 205.578125 " fill-opacity="1" fill-rule="nonzero"/></g><g clip-path="url(#1336ffe30f)"><path fill="#e7efe7" d="M 205.414062 205.578125 L 205.414062 0.773438 C 260.351562 2.660156 304.300781 47.785156 304.300781 103.175781 C 304.300781 158.550781 260.351562 203.6875 205.414062 205.578125 Z M 205.414062 205.578125 " fill-opacity="1" fill-rule="nonzero"/></g><g clip-path="url(#4fb96cb8a6)"><path fill="#e7efe7" d="M 205.414062 205.578125 L 0.609375 205.578125 C 2.496094 150.640625 47.621094 106.691406 103.011719 106.691406 C 158.390625 106.691406 203.527344 150.640625 205.414062 205.578125 Z M 205.414062 205.578125 " fill-opacity="1" fill-rule="nonzero"/></g><g clip-path="url(#53a0cf1361)"><path fill="#e7efe7" d="M 205.414062 410.378906 L 205.414062 205.578125 C 150.476562 207.464844 106.527344 252.585938 106.527344 307.976562 C 106.527344 363.355469 150.476562 408.492188 205.414062 410.378906 Z M 205.414062 410.378906 " fill-opacity="1" fill-rule="nonzero"/></g></g></g></g><path fill="#4d6c4a" d="M 300.351562 149.847656 C 300.285156 149.847656 300.1875 149.929688 300.089844 150.066406 L 299.976562 150.222656 L 300.03125 150.039062 C 300.09375 149.820312 300.121094 149.632812 300.121094 149.457031 C 300.121094 147.792969 298.902344 146.4375 297.402344 146.4375 C 295.902344 146.4375 294.683594 147.792969 294.683594 149.457031 C 294.683594 149.632812 294.710938 149.820312 294.773438 150.039062 L 294.828125 150.222656 L 294.714844 150.066406 C 294.621094 149.929688 294.519531 149.847656 294.449219 149.847656 C 294.449219 149.847656 294.441406 149.847656 294.433594 149.855469 C 294.363281 149.929688 294.351562 150.304688 294.398438 150.972656 C 294.4375 151.554688 294.789062 152.097656 294.988281 152.097656 C 295.003906 152.097656 295.019531 152.09375 295.03125 152.082031 L 295.074219 152.050781 L 295.082031 152.101562 C 295.335938 153.40625 296.289062 154.316406 297.402344 154.316406 C 298.515625 154.316406 299.472656 153.40625 299.71875 152.101562 L 299.730469 152.050781 L 299.773438 152.082031 C 299.785156 152.09375 299.800781 152.097656 299.824219 152.097656 C 300.011719 152.097656 300.367188 151.554688 300.40625 150.972656 C 300.453125 150.304688 300.441406 149.929688 300.367188 149.855469 C 300.363281 149.847656 300.355469 149.847656 300.351562 149.847656 " fill-opacity="1" fill-rule="nonzero"/><path fill="#4d6c4a" d="M 300.054688 154.675781 L 300.023438 154.71875 L 299.921875 154.675781 L 298.03125 157.503906 L 298.019531 157.40625 L 297.796875 155.710938 L 298.199219 154.59375 L 298.242188 154.472656 C 297.980469 154.585938 297.695312 154.648438 297.402344 154.648438 C 297.109375 154.648438 296.824219 154.585938 296.5625 154.472656 L 296.605469 154.59375 L 297.007812 155.710938 L 296.78125 157.421875 L 294.972656 154.695312 L 294.914062 154.71875 L 294.886719 154.675781 L 291.316406 156.199219 L 291.109375 157.585938 C 292.484375 159.566406 294.792969 160.871094 297.402344 160.871094 C 300.082031 160.871094 302.441406 159.496094 303.804688 157.421875 L 303.621094 156.199219 L 300.054688 154.675781 " fill-opacity="1" fill-rule="nonzero"/><g clip-path="url(#fd28eed921)"><path fill="#4d6c4a" d="M 297.402344 161.523438 C 292.824219 161.523438 289.109375 157.855469 289.109375 153.328125 C 289.109375 148.800781 292.824219 145.128906 297.402344 145.128906 C 301.984375 145.128906 305.699219 148.800781 305.699219 153.328125 C 305.699219 157.855469 301.984375 161.523438 297.402344 161.523438 Z M 313.628906 154.949219 L 313.628906 150.628906 L 310.050781 150.628906 C 309.882812 149.855469 309.644531 149.105469 309.339844 148.386719 L 312.273438 146.714844 L 310.089844 142.972656 L 306.976562 144.75 C 306.445312 144.171875 305.863281 143.640625 305.234375 143.164062 L 306.9375 140.25 L 303.152344 138.089844 L 301.363281 141.152344 C 300.617188 140.914062 299.839844 140.75 299.042969 140.648438 L 299.042969 137.289062 L 294.671875 137.289062 L 294.671875 140.828125 C 293.890625 140.992188 293.128906 141.226562 292.40625 141.527344 L 290.710938 138.628906 L 286.925781 140.789062 L 288.722656 143.863281 C 288.136719 144.390625 287.601562 144.964844 287.121094 145.585938 L 284.171875 143.90625 L 281.988281 147.644531 L 285.085938 149.414062 C 284.84375 150.152344 284.675781 150.917969 284.574219 151.707031 L 281.179688 151.707031 L 281.179688 156.023438 L 284.753906 156.023438 C 284.921875 156.800781 285.160156 157.550781 285.464844 158.269531 L 282.53125 159.941406 L 284.714844 163.679688 L 287.828125 161.90625 C 288.359375 162.484375 288.941406 163.015625 289.570312 163.492188 L 287.871094 166.40625 L 291.652344 168.5625 L 293.441406 165.503906 C 294.1875 165.738281 294.964844 165.90625 295.761719 166.007812 L 295.761719 169.363281 L 300.132812 169.363281 L 300.132812 165.828125 C 300.917969 165.660156 301.675781 165.425781 302.402344 165.125 L 304.09375 168.027344 L 307.878906 165.867188 L 306.082031 162.792969 C 306.667969 162.265625 307.203125 161.691406 307.683594 161.066406 L 310.632812 162.75 L 312.816406 159.011719 L 309.722656 157.242188 C 309.960938 156.503906 310.128906 155.738281 310.230469 154.949219 L 313.628906 154.949219 " fill-opacity="1" fill-rule="nonzero"/></g><path fill="#4d6c4a" d="M 284.472656 175.972656 L 282.203125 175.164062 L 282.199219 175.152344 L 282.203125 175.144531 L 281.90625 174.496094 C 282.226562 174.214844 282.484375 173.820312 282.558594 173.421875 L 282.566406 173.394531 L 282.589844 173.410156 C 282.597656 173.417969 282.605469 173.421875 282.617188 173.421875 C 282.726562 173.421875 282.703125 173.332031 282.726562 173 C 282.753906 172.621094 282.746094 172.410156 282.703125 172.367188 C 282.699219 172.363281 282.699219 172.363281 282.695312 172.363281 C 282.65625 172.363281 282.601562 172.410156 282.546875 172.488281 L 282.484375 172.574219 L 282.511719 172.472656 C 282.546875 172.34375 282.566406 172.242188 282.566406 172.140625 C 282.566406 171.195312 281.871094 170.425781 281.019531 170.425781 C 280.167969 170.425781 279.472656 171.195312 279.472656 172.140625 C 279.472656 172.242188 279.492188 172.34375 279.527344 172.472656 L 279.554688 172.574219 L 279.496094 172.488281 C 279.4375 172.410156 279.382812 172.363281 279.34375 172.363281 C 279.339844 172.363281 279.339844 172.363281 279.335938 172.367188 C 279.292969 172.410156 279.285156 172.621094 279.3125 173 C 279.335938 173.332031 279.316406 173.421875 279.425781 173.421875 C 279.4375 173.421875 279.441406 173.417969 279.449219 173.410156 L 279.472656 173.394531 L 279.480469 173.421875 C 279.558594 173.820312 279.816406 174.214844 280.132812 174.496094 L 279.839844 175.132812 L 277.480469 175.972656 L 277.296875 176.742188 C 278.09375 177.996094 279.496094 178.792969 281.066406 178.792969 C 281.410156 178.792969 281.75 178.753906 282.082031 178.679688 C 283.164062 178.429688 284.082031 177.796875 284.71875 176.90625 L 284.472656 175.972656 " fill-opacity="1" fill-rule="nonzero"/><g clip-path="url(#a3630ea33c)"><path fill="#4d6c4a" d="M 282.230469 179.316406 C 279.472656 179.949219 276.714844 178.25 276.074219 175.519531 C 275.433594 172.789062 277.152344 170.0625 279.914062 169.429688 C 282.675781 168.796875 285.4375 170.5 286.074219 173.226562 C 286.714844 175.957031 284.996094 178.683594 282.230469 179.316406 Z M 290.382812 178.226562 L 291.171875 175.671875 L 289.054688 175.03125 C 289.09375 174.554688 289.089844 174.070312 289.039062 173.582031 L 291.085938 173.109375 L 290.476562 170.503906 L 288.316406 171 C 288.105469 170.558594 287.855469 170.136719 287.574219 169.746094 L 289.105469 168.332031 L 287.355469 166.480469 L 286.816406 166.789062 L 285.632812 167.878906 C 285.230469 167.601562 284.804688 167.367188 284.359375 167.164062 L 284.972656 165.171875 L 282.386719 164.394531 L 281.742188 166.484375 C 281.257812 166.445312 280.765625 166.453125 280.269531 166.503906 L 279.792969 164.480469 L 277.160156 165.082031 L 277.660156 167.214844 C 277.210938 167.421875 276.785156 167.667969 276.394531 167.949219 L 274.960938 166.4375 L 272.984375 168.261719 L 274.503906 169.867188 C 274.226562 170.265625 273.984375 170.6875 273.78125 171.128906 L 271.765625 170.519531 L 270.976562 173.078125 L 273.09375 173.714844 C 273.050781 174.191406 273.0625 174.679688 273.113281 175.167969 L 271.0625 175.636719 L 271.671875 178.238281 L 273.832031 177.746094 C 274.042969 178.191406 274.289062 178.609375 274.578125 179 L 273.042969 180.414062 L 274.886719 182.367188 L 276.511719 180.867188 C 276.914062 181.140625 277.34375 181.382812 277.789062 181.582031 L 277.175781 183.574219 L 279.761719 184.355469 L 280.40625 182.261719 C 280.890625 182.300781 281.382812 182.292969 281.875 182.242188 L 282.351562 184.269531 L 284.984375 183.664062 L 284.488281 181.535156 C 284.9375 181.324219 285.359375 181.078125 285.753906 180.796875 L 287.1875 182.308594 L 289.160156 180.484375 L 287.644531 178.878906 C 287.921875 178.484375 288.164062 178.0625 288.367188 177.617188 L 290.382812 178.226562 " fill-opacity="1" fill-rule="nonzero"/></g><path fill="#4d6c4a" d="M 275.242188 159.648438 L 273.796875 159.132812 L 273.792969 159.125 L 273.605469 158.707031 C 273.808594 158.527344 273.972656 158.277344 274.019531 158.023438 L 274.027344 158.003906 L 274.039062 158.015625 C 274.046875 158.023438 274.050781 158.023438 274.058594 158.023438 C 274.128906 158.023438 274.113281 157.964844 274.128906 157.753906 C 274.144531 157.515625 274.140625 157.378906 274.113281 157.351562 C 274.113281 157.347656 274.109375 157.347656 274.109375 157.347656 C 274.085938 157.347656 274.050781 157.378906 274.011719 157.429688 L 273.972656 157.484375 L 273.992188 157.417969 C 274.015625 157.335938 274.027344 157.273438 274.027344 157.207031 C 274.027344 156.605469 273.585938 156.113281 273.042969 156.113281 C 272.496094 156.113281 272.054688 156.605469 272.054688 157.207031 C 272.054688 157.273438 272.066406 157.335938 272.089844 157.417969 L 272.109375 157.484375 L 272.070312 157.429688 C 272.03125 157.378906 271.996094 157.347656 271.972656 157.347656 C 271.972656 157.347656 271.96875 157.347656 271.96875 157.351562 C 271.941406 157.378906 271.9375 157.515625 271.953125 157.753906 C 271.96875 157.964844 271.957031 158.023438 272.027344 158.023438 C 272.03125 158.023438 272.039062 158.023438 272.042969 158.015625 L 272.054688 158.003906 L 272.0625 158.023438 C 272.109375 158.277344 272.277344 158.523438 272.476562 158.707031 L 272.289062 159.113281 L 270.789062 159.648438 L 270.515625 160.769531 C 271.035156 161.410156 271.773438 161.835938 272.621094 161.949219 C 272.78125 161.972656 272.933594 161.984375 273.089844 161.984375 C 274.078125 161.984375 274.976562 161.542969 275.554688 160.847656 L 275.242188 159.648438 " fill-opacity="1" fill-rule="nonzero"/><g clip-path="url(#ab83ebdbc9)"><path fill="#4d6c4a" d="M 276.855469 159.507812 C 276.574219 161.507812 274.636719 162.890625 272.53125 162.597656 C 270.421875 162.308594 268.941406 160.453125 269.226562 158.457031 C 269.507812 156.460938 271.445312 155.078125 273.550781 155.367188 C 275.65625 155.660156 277.136719 157.511719 276.855469 159.507812 Z M 280.402344 160.730469 L 280.671875 158.824219 L 279.027344 158.597656 C 278.996094 158.246094 278.933594 157.898438 278.839844 157.5625 L 280.292969 157.011719 L 279.523438 155.222656 L 277.980469 155.808594 C 277.769531 155.519531 277.535156 155.25 277.273438 155 L 278.242188 153.820312 L 276.636719 152.628906 L 275.621094 153.867188 C 275.292969 153.714844 274.945312 153.589844 274.585938 153.496094 L 274.796875 152.015625 L 272.785156 151.738281 L 272.566406 153.296875 C 272.195312 153.320312 271.832031 153.375 271.476562 153.460938 L 270.878906 152.078125 L 269.003906 152.789062 L 269.640625 154.257812 C 269.335938 154.453125 269.054688 154.671875 268.792969 154.917969 L 267.542969 153.984375 L 266.304688 155.5 L 267.621094 156.472656 C 267.460938 156.785156 267.339844 157.109375 267.242188 157.453125 L 265.679688 157.234375 L 265.410156 159.140625 L 267.054688 159.367188 C 267.085938 159.722656 267.144531 160.066406 267.242188 160.402344 L 265.789062 160.953125 L 266.558594 162.742188 L 268.097656 162.15625 C 268.3125 162.445312 268.542969 162.714844 268.804688 162.96875 L 267.839844 164.144531 L 269.445312 165.335938 L 270.460938 164.101562 C 270.785156 164.25 271.132812 164.375 271.496094 164.46875 L 271.285156 165.949219 L 273.292969 166.226562 L 273.515625 164.667969 C 273.886719 164.644531 274.25 164.589844 274.601562 164.503906 L 275.199219 165.890625 L 277.074219 165.175781 L 276.441406 163.707031 C 276.742188 163.511719 277.027344 163.292969 277.285156 163.046875 L 278.535156 163.976562 L 279.777344 162.46875 L 278.460938 161.492188 C 278.617188 161.183594 278.742188 160.851562 278.839844 160.511719 L 280.402344 160.730469 " fill-opacity="1" fill-rule="nonzero"/></g><g clip-path="url(#ea6c132499)"><path fill="#4d6c4a" d="M 316.539062 233.421875 C 318.246094 234.652344 319.300781 236.359375 319.300781 238.253906 C 319.300781 238.472656 319.125 238.648438 318.910156 238.648438 L 301.164062 238.648438 C 300.945312 238.648438 300.769531 238.472656 300.769531 238.253906 C 300.769531 236.359375 301.828125 234.652344 303.535156 233.421875 C 305.203125 232.222656 307.503906 231.480469 310.035156 231.480469 C 312.566406 231.480469 314.867188 232.222656 316.539062 233.421875 Z M 310.035156 220.117188 C 312.914062 220.117188 315.246094 222.46875 315.246094 225.367188 C 315.246094 228.269531 312.914062 230.621094 310.035156 230.621094 C 307.160156 230.621094 304.828125 228.269531 304.828125 225.367188 C 304.828125 222.46875 307.160156 220.117188 310.035156 220.117188 Z M 310.035156 220.117188 " fill-opacity="1" fill-rule="evenodd"/></g><g clip-path="url(#27c151b4a5)"><path fill="#4d6c4a" d="M 280.042969 237.160156 L 275.605469 232.894531 C 276.921875 231.484375 277.644531 229.65625 277.644531 227.714844 C 277.644531 225.773438 276.855469 223.777344 275.421875 222.34375 C 273.984375 220.90625 272.078125 220.117188 270.046875 220.117188 C 268.019531 220.117188 266.109375 220.90625 264.675781 222.34375 C 263.238281 223.777344 262.449219 225.683594 262.449219 227.714844 C 262.449219 229.742188 263.238281 231.652344 264.675781 233.085938 C 266.109375 234.523438 268.019531 235.3125 270.046875 235.3125 C 271.578125 235.3125 273.039062 234.863281 274.28125 234.027344 L 278.84375 238.410156 C 279.003906 238.566406 279.21875 238.652344 279.441406 238.652344 C 279.667969 238.652344 279.90625 238.554688 280.066406 238.382812 C 280.398438 238.039062 280.386719 237.492188 280.042969 237.160156 Z M 273.386719 232.703125 C 272.429688 233.34375 271.285156 233.714844 270.046875 233.714844 C 266.734375 233.714844 264.046875 231.027344 264.046875 227.714844 C 264.046875 224.402344 266.734375 221.714844 270.046875 221.714844 C 273.363281 221.714844 276.046875 224.402344 276.046875 227.714844 C 276.046875 229.355469 275.386719 230.847656 274.316406 231.929688 C 274.035156 232.21875 273.722656 232.476562 273.382812 232.703125 Z M 273.386719 232.703125 " fill-opacity="1" fill-rule="nonzero"/></g></svg>