<svg width="77" height="58" viewBox="0 0 77 58" fill="none" xmlns="http://www.w3.org/2000/svg">
<mask id="mask0_374_1727" style="mask-type:luminance" maskUnits="userSpaceOnUse" x="22" y="29" width="33" height="29">
<path d="M22.7305 29.4869H54.7305V57.4765H22.7305V29.4869Z" fill="white"/>
</mask>
<g mask="url(#mask0_374_1727)">
<path d="M42.5807 29.9453H34.6589C28.4766 29.9453 23.4609 34.9557 23.4609 41.138V53.8932C33.2422 57.4557 43.9818 57.4557 53.763 53.8932V41.138C53.7786 34.9557 48.763 29.9453 42.5807 29.9453Z" fill="white"/>
</g>
<path d="M47.8034 17.0859C47.8034 17.6901 47.7461 18.2891 47.6263 18.8776C47.5117 19.4714 47.3346 20.0443 47.1055 20.6016C46.8763 21.1589 46.5898 21.6901 46.2565 22.1901C45.9232 22.6901 45.5378 23.1536 45.1159 23.5807C44.6888 24.0078 44.2253 24.388 43.7201 24.7266C43.2201 25.0599 42.6888 25.3411 42.1315 25.5755C41.5742 25.8047 41.0013 25.9766 40.4128 26.0964C39.819 26.2161 39.2201 26.2734 38.6159 26.2734C38.0169 26.2734 37.418 26.2161 36.8242 26.0964C36.2357 25.9766 35.6628 25.8047 35.1055 25.5755C34.5482 25.3411 34.0169 25.0599 33.5169 24.7266C33.0117 24.388 32.5482 24.0078 32.1211 23.5807C31.6992 23.1536 31.3138 22.6901 30.9805 22.1901C30.6471 21.6901 30.3607 21.1589 30.1315 20.6016C29.9023 20.0443 29.7253 19.4714 29.6107 18.8776C29.4909 18.2891 29.4336 17.6901 29.4336 17.0859C29.4336 16.4818 29.4909 15.888 29.6107 15.2943C29.7253 14.7005 29.9023 14.1276 30.1315 13.5703C30.3607 13.013 30.6471 12.487 30.9805 11.9818C31.3138 11.4818 31.6992 11.0182 32.1211 10.5911C32.5482 10.1641 33.0117 9.78385 33.5169 9.45052C34.0169 9.11198 34.5482 8.83073 35.1055 8.60156C35.6628 8.36719 36.2357 8.19531 36.8242 8.07552C37.418 7.96094 38.0169 7.89844 38.6159 7.89844C39.2201 7.89844 39.819 7.96094 40.4128 8.07552C41.0013 8.19531 41.5742 8.36719 42.1315 8.60156C42.6888 8.83073 43.2201 9.11198 43.7201 9.45052C44.2253 9.78385 44.6888 10.1641 45.1159 10.5911C45.5378 11.0182 45.9232 11.4818 46.2565 11.9818C46.5898 12.487 46.8763 13.013 47.1055 13.5703C47.3346 14.1276 47.5117 14.7005 47.6263 15.2943C47.7461 15.888 47.8034 16.4818 47.8034 17.0859Z" fill="white"/>
<mask id="mask1_374_1727" style="mask-type:luminance" maskUnits="userSpaceOnUse" x="46" y="21" width="31" height="29">
<path d="M46.7305 21.4869H76.4701V49.4869H46.7305V21.4869Z" fill="white"/>
</mask>
<g mask="url(#mask1_374_1727)">
<path d="M65.5065 22.5703H57.5846C53.2253 22.5703 49.4492 25.0703 47.6055 28.7109C52.5117 30.7057 55.9857 35.5182 55.9857 41.1276V48.8307C62.9284 49.7161 70.043 48.9401 76.7044 46.5182V33.7682C76.7044 27.5807 71.6888 22.5703 65.5065 22.5703Z" fill="white"/>
</g>
<mask id="mask2_374_1727" style="mask-type:luminance" maskUnits="userSpaceOnUse" x="52" y="0" width="19" height="21">
<path d="M52.0625 0.523438H70.7292V20.1536H52.0625V0.523438Z" fill="white"/>
</mask>
<g mask="url(#mask2_374_1727)">
<path d="M70.7292 9.71614C70.7292 10.3151 70.6719 10.9141 70.5521 11.5078C70.4375 12.0964 70.2604 12.6693 70.0312 13.2266C69.7969 13.7839 69.5156 14.3151 69.1823 14.8151C68.8438 15.3203 68.4635 15.7839 68.0365 16.2109C67.6146 16.638 67.1458 17.0182 66.6458 17.3516C66.1458 17.6849 65.6146 17.9714 65.0573 18.2005C64.5 18.4297 63.9271 18.6068 63.3333 18.7214C62.7448 18.8411 62.1458 18.8984 61.5417 18.8984C60.9427 18.8984 60.3438 18.8411 59.75 18.7214C59.1615 18.6068 58.5833 18.4297 58.026 18.2005C57.4688 17.9714 56.9427 17.6849 56.4375 17.3516C55.9375 17.0182 55.474 16.638 55.0469 16.2109C54.6198 15.7839 54.2396 15.3203 53.9062 14.8151C53.5729 14.3151 53.2865 13.7839 53.0573 13.2266C52.8281 12.6693 52.651 12.0964 52.5365 11.5078C52.4167 10.9141 52.3594 10.3151 52.3594 9.71614C52.3594 9.11198 52.4167 8.51302 52.5365 7.91927C52.651 7.33073 52.8281 6.75781 53.0573 6.20052C53.2865 5.64323 53.5729 5.11198 53.9062 4.61198C54.2396 4.10677 54.6198 3.64323 55.0469 3.21614C55.474 2.79427 55.9375 2.40885 56.4375 2.07552C56.9427 1.74219 57.4688 1.45573 58.026 1.22656C58.5833 0.997394 59.1615 0.820311 59.75 0.705727C60.3438 0.585937 60.9427 0.528645 61.5417 0.528645C62.1458 0.528645 62.7448 0.585937 63.3333 0.705727C63.9271 0.820311 64.5 0.997394 65.0573 1.22656C65.6146 1.45573 66.1458 1.74219 66.6458 2.07552C67.1458 2.40885 67.6146 2.79427 68.0365 3.21614C68.4635 3.64323 68.8438 4.10677 69.1823 4.61198C69.5156 5.11198 69.7969 5.64323 70.0312 6.20052C70.2604 6.75781 70.4375 7.33073 70.5521 7.91927C70.6719 8.51302 70.7292 9.11198 70.7292 9.71614Z" fill="white"/>
</g>
<mask id="mask3_374_1727" style="mask-type:luminance" maskUnits="userSpaceOnUse" x="0" y="21" width="31" height="29">
<path d="M0.53125 21.4869H30.7292V49.4869H0.53125V21.4869Z" fill="white"/>
</mask>
<g mask="url(#mask3_374_1727)">
<path d="M29.6302 28.7265C27.7865 25.0859 24.0104 22.5859 19.651 22.5859H11.7292C5.54687 22.5703 0.53125 27.5807 0.53125 33.7682V46.5182C7.20833 48.9557 14.3021 49.7161 21.25 48.8307V41.1276C21.25 35.5182 24.724 30.7057 29.6302 28.7265Z" fill="white"/>
</g>
<mask id="mask4_374_1727" style="mask-type:luminance" maskUnits="userSpaceOnUse" x="5" y="0" width="21" height="21">
<path d="M5.39453 0.523438H25.3945V20.1536H5.39453V0.523438Z" fill="white"/>
</mask>
<g mask="url(#mask4_374_1727)">
<path d="M24.8737 9.71614C24.8737 10.3151 24.8164 10.9141 24.6966 11.5078C24.582 12.0964 24.4049 12.6693 24.1758 13.2266C23.9466 13.7839 23.6602 14.3151 23.3268 14.8151C22.9935 15.3203 22.6133 15.7839 22.1862 16.2109C21.7591 16.638 21.2956 17.0182 20.7904 17.3516C20.2904 17.6849 19.7643 17.9714 19.207 18.2005C18.6497 18.4297 18.0716 18.6068 17.4831 18.7214C16.8893 18.8411 16.2904 18.8984 15.6914 18.8984C15.0872 18.8984 14.4883 18.8411 13.8997 18.7214C13.306 18.6068 12.7331 18.4297 12.1758 18.2005C11.6185 17.9714 11.0872 17.6849 10.5872 17.3516C10.0872 17.0182 9.61849 16.638 9.19661 16.2109C8.76953 15.7839 8.38932 15.3203 8.05078 14.8151C7.71745 14.3151 7.4362 13.7839 7.20182 13.2266C6.97266 12.6693 6.79557 12.0964 6.68099 11.5078C6.5612 10.9141 6.50391 10.3151 6.50391 9.71614C6.50391 9.11198 6.5612 8.51302 6.68099 7.91927C6.79557 7.33073 6.97266 6.75781 7.20182 6.20052C7.4362 5.64323 7.71745 5.11198 8.05078 4.61198C8.38932 4.10677 8.76953 3.64323 9.19661 3.21614C9.61849 2.79427 10.0872 2.40885 10.5872 2.07552C11.0872 1.74219 11.6185 1.45573 12.1758 1.22656C12.7331 0.997394 13.306 0.820311 13.8997 0.705727C14.4883 0.585937 15.0872 0.528645 15.6914 0.528645C16.2904 0.528645 16.8893 0.585937 17.4831 0.705727C18.0716 0.820311 18.6497 0.997394 19.207 1.22656C19.7643 1.45573 20.2904 1.74219 20.7904 2.07552C21.2956 2.40885 21.7591 2.79427 22.1862 3.21614C22.6133 3.64323 22.9935 4.10677 23.3268 4.61198C23.6602 5.11198 23.9466 5.64323 24.1758 6.20052C24.4049 6.75781 24.582 7.33073 24.6966 7.91927C24.8164 8.51302 24.8737 9.11198 24.8737 9.71614Z" fill="white"/>
</g>
</svg>
