<svg width="59" height="64" viewBox="0 0 59 64" fill="none" xmlns="http://www.w3.org/2000/svg">
<mask id="mask0_458_297" style="mask-type:luminance" maskUnits="userSpaceOnUse" x="13" y="0" width="33" height="39">
<path d="M13.4297 0H45.4584V38.2947H13.4297V0Z" fill="white"/>
</mask>
<g mask="url(#mask0_458_297)">
<path d="M17.2631 17.1454C17.3048 17.135 17.3517 17.1298 17.3777 17.1246L17.6645 17.0672V16.2123C17.6645 15.6232 17.7479 15.0446 17.899 14.4972C18.4203 12.6414 19.7809 11.0723 21.6628 10.5093C21.8714 10.4467 22.0955 10.3946 22.3145 10.3581C22.3353 10.4102 22.3614 10.4624 22.3979 10.5093C22.4031 10.5354 22.4239 10.5562 22.4291 10.5718C22.5699 10.9107 22.7628 11.2287 22.9974 11.4893C24.6134 13.9186 26.7872 15.8526 29.2686 17.1819C32.6206 18.9908 36.5512 19.705 40.4766 19.0221C40.6851 18.9908 40.878 18.9543 41.0865 18.9074C41.3628 18.8553 41.6443 18.7823 41.9258 18.7198L41.9362 18.8553C41.9467 19.0951 41.9467 19.3714 41.9206 19.6946C41.8998 20.0647 41.8424 20.4348 41.7746 20.8623C41.7434 21.076 41.7121 21.3002 41.6808 21.5348C41.5818 22.3428 41.3732 23.2811 40.5861 24.0057C40.487 24.0996 40.3828 24.183 40.2733 24.2768L40.1638 24.3602C39.8719 24.6157 39.5435 24.892 39.2724 25.2256C38.9231 25.6583 38.798 26.1587 38.6729 26.6696C38.6156 26.9198 38.553 27.1752 38.4592 27.4046C38.136 28.2178 37.7971 28.906 37.4218 29.5002C36.619 30.8139 35.5295 31.9556 34.2835 32.8053C33.9812 33.0086 33.6632 33.1963 33.3296 33.3839C30.6292 34.8905 27.7933 34.7549 25.0878 33.3996L25.0565 33.3787C24.7385 33.2067 24.4205 33.0138 24.113 32.8053C21.7827 31.2153 20.1876 28.8121 19.3952 25.7208C19.3535 25.5801 19.2753 25.2099 18.9156 24.8711L18.7748 24.746L18.6184 24.6626C17.2683 23.938 16.8356 22.5617 16.7053 21.5244C16.6896 21.394 16.6636 21.2637 16.6479 21.123C16.6427 21.1177 16.6427 21.1021 16.6427 21.0917L16.6114 20.8362C16.5489 20.4348 16.4863 20.0647 16.4655 19.705C16.455 19.46 16.4446 19.1629 16.455 18.8449L16.4498 18.6676C16.4185 18.0473 16.773 17.2601 17.2631 17.1454ZM13.885 21.6703L13.9163 21.8736C14.1769 24.037 15.1883 25.7782 16.7835 26.8364C17.8 30.4229 19.734 33.2171 22.5282 35.1251C26.7507 38.0026 31.6145 38.0131 35.8631 35.1251C37.4322 34.0564 38.8084 32.6228 39.8198 30.9755C40.2733 30.2457 40.6851 29.422 41.0709 28.4472C41.2325 28.0406 41.3263 27.6705 41.4202 27.3056C41.4514 27.1805 41.4879 27.0241 41.5192 26.9354C41.6235 26.8103 41.8216 26.6539 41.9988 26.5028L42.1083 26.4089C42.223 26.3047 42.3429 26.2004 42.4784 26.0857C43.9745 24.7095 44.329 23.0257 44.4698 21.8893C44.501 21.6807 44.5219 21.4774 44.5636 21.2533C44.6262 20.8362 44.6939 20.3566 44.7252 19.8718C44.7565 19.4704 44.7565 19.1159 44.7461 18.7823C44.7617 18.4435 44.7565 16.1706 44.7565 16.1654C44.7565 12.24 44.0215 7.9497 41.4358 4.80626C38.5426 1.29792 33.731 0.03637 29.3416 0.104139C25.0409 0.171909 20.7349 1.60027 17.8625 4.31103C15.5584 6.48485 14.5523 9.52924 14.1769 12.6049C14.1405 12.9125 14.0466 14.8674 13.9684 16.8848C13.8902 18.8292 13.8329 20.8362 13.8642 21.4722C13.8642 21.6026 13.8694 21.6703 13.885 21.6703Z" fill="#4D6C4A"/>
</g>
<mask id="mask1_458_297" style="mask-type:luminance" maskUnits="userSpaceOnUse" x="0" y="39" width="59" height="25">
<path d="M0.5 39.6292H58.5V63.9999H0.5V39.6292Z" fill="white"/>
</mask>
<g mask="url(#mask1_458_297)">
<path d="M58.0035 62.4309C57.9982 62.3892 57.993 62.3527 57.9878 62.311C57.503 58.0781 57.0547 53.8347 56.6012 49.6017C56.5647 49.2837 56.523 48.9866 56.4813 48.7103C56.3718 47.9857 56.2154 47.3966 55.96 46.9014C55.7827 46.5261 55.5586 46.2133 55.2771 45.937C54.9278 45.7858 54.542 45.6503 54.1354 45.4991C54.1146 45.4991 54.0833 45.4887 54.0624 45.4887C52.535 44.9674 50.9815 44.5191 49.4385 44.0603C48.0362 43.6537 46.6287 43.2575 45.2211 42.8665C42.0047 41.7874 38.9812 40.7865 38.7987 40.7761C38.7518 40.9534 38.7049 41.1358 38.6528 41.3026C38.267 42.7466 37.8969 44.1802 37.5007 45.6138C37.1983 46.6981 36.896 47.7668 36.5675 48.8406C35.6553 51.7756 34.6335 54.6896 33.6118 57.5933C33.6066 57.6298 33.5909 57.661 33.5805 57.6923C33.4606 58.0259 33.3042 58.3335 33.1478 58.6515C33.0696 58.0989 32.8715 55.9981 32.6682 53.7409C32.3815 50.5609 32.0791 47.0474 32.0791 47.0474L33.1843 44.6963C33.2833 44.4878 33.2781 44.2376 33.1739 44.0238L32.5692 42.8509C32.4388 42.5955 32.173 42.4339 31.8915 42.4339H26.7149C26.423 42.4339 26.1624 42.5955 26.032 42.8509L25.4273 44.0238C25.3179 44.2376 25.3179 44.4878 25.4169 44.6963L26.5273 47.0474C26.5273 47.0474 26.2249 50.5609 25.933 53.7409C25.7297 55.9981 25.5316 58.0989 25.4534 58.6515C25.2918 58.3335 25.1354 58.0259 25.0259 57.6923C25.0103 57.661 24.9947 57.6298 24.9894 57.5933C23.9677 54.6896 22.9459 51.7756 22.0337 48.8406C21.7052 47.7668 21.3977 46.6981 21.1057 45.6138C20.7096 44.1802 20.3342 42.7466 19.9432 41.3026C19.8963 41.1358 19.8494 40.9534 19.8025 40.7761C19.62 40.7865 16.5808 41.7927 13.3592 42.877C11.9569 43.2627 10.5598 43.6537 9.17315 44.0603C7.61968 44.5191 6.07663 44.9674 4.54921 45.4887C4.51793 45.4887 4.49708 45.4991 4.47623 45.4991C4.06961 45.6503 3.68906 45.7858 3.33979 45.937C3.05829 46.2081 2.82892 46.5156 2.65167 46.8858C2.40145 47.381 2.23985 47.9805 2.13037 48.7103C2.07824 48.9866 2.04696 49.2837 2.01569 49.6017C1.55694 53.8347 1.09298 58.0781 0.613386 62.311C0.608172 62.3527 0.602959 62.3892 0.597747 62.4309C0.477847 63.4683 1.28587 64.391 2.34411 64.391C2.75072 64.391 3.22511 64.3962 3.74119 64.3962H3.75683C3.98099 64.4275 4.11132 64.4223 4.11132 64.4223H54.4899C54.4899 64.4223 54.6202 64.4275 54.8392 64.3962C54.8444 64.3962 54.8444 64.3962 54.8444 64.3962C55.3761 64.3962 55.8505 64.391 56.2675 64.391C57.3153 64.391 58.1338 63.4683 58.0035 62.4309Z" fill="#4D6C4A"/>
</g>
</svg>
