<svg width="58" height="64" viewBox="0 0 58 64" fill="none" xmlns="http://www.w3.org/2000/svg">
<mask id="mask0_374_1757" style="mask-type:luminance" maskUnits="userSpaceOnUse" x="12" y="0" width="33" height="39">
<path d="M12.9297 0H44.9584V38.2947H12.9297V0Z" fill="white"/>
</mask>
<g mask="url(#mask0_374_1757)">
<path d="M16.7631 17.1454C16.8048 17.135 16.8517 17.1298 16.8777 17.1246L17.1645 17.0672V16.2123C17.1645 15.6232 17.2479 15.0446 17.399 14.4972C17.9203 12.6414 19.2809 11.0723 21.1628 10.5093C21.3714 10.4467 21.5955 10.3946 21.8145 10.3581C21.8353 10.4102 21.8614 10.4624 21.8979 10.5093C21.9031 10.5354 21.9239 10.5562 21.9291 10.5718C22.0699 10.9107 22.2628 11.2287 22.4974 11.4893C24.1134 13.9186 26.2872 15.8526 28.7686 17.1819C32.1206 18.9908 36.0512 19.705 39.9766 19.0221C40.1851 18.9908 40.378 18.9543 40.5865 18.9074C40.8628 18.8553 41.1443 18.7823 41.4258 18.7198L41.4362 18.8553C41.4467 19.0951 41.4467 19.3714 41.4206 19.6946C41.3998 20.0647 41.3424 20.4348 41.2746 20.8623C41.2434 21.076 41.2121 21.3002 41.1808 21.5348C41.0818 22.3428 40.8732 23.2811 40.0861 24.0057C39.987 24.0996 39.8828 24.183 39.7733 24.2768L39.6638 24.3602C39.3719 24.6157 39.0435 24.892 38.7724 25.2256C38.4231 25.6583 38.298 26.1587 38.1729 26.6696C38.1156 26.9198 38.053 27.1752 37.9592 27.4046C37.636 28.2178 37.2971 28.906 36.9218 29.5002C36.119 30.8139 35.0295 31.9556 33.7835 32.8053C33.4812 33.0086 33.1632 33.1963 32.8296 33.3839C30.1292 34.8905 27.2933 34.7549 24.5878 33.3996L24.5565 33.3787C24.2385 33.2067 23.9205 33.0138 23.613 32.8053C21.2827 31.2153 19.6876 28.8121 18.8952 25.7208C18.8535 25.5801 18.7753 25.2099 18.4156 24.8711L18.2748 24.746L18.1184 24.6626C16.7683 23.938 16.3356 22.5617 16.2053 21.5244C16.1896 21.394 16.1636 21.2637 16.1479 21.123C16.1427 21.1177 16.1427 21.1021 16.1427 21.0917L16.1114 20.8362C16.0489 20.4348 15.9863 20.0647 15.9655 19.705C15.955 19.46 15.9446 19.1629 15.955 18.8449L15.9498 18.6676C15.9185 18.0473 16.273 17.2601 16.7631 17.1454ZM13.385 21.6703L13.4163 21.8736C13.6769 24.037 14.6883 25.7782 16.2835 26.8364C17.3 30.4229 19.234 33.2171 22.0282 35.1251C26.2507 38.0026 31.1145 38.0131 35.3631 35.1251C36.9322 34.0564 38.3084 32.6228 39.3198 30.9755C39.7733 30.2457 40.1851 29.422 40.5709 28.4472C40.7325 28.0406 40.8263 27.6705 40.9202 27.3056C40.9514 27.1805 40.9879 27.0241 41.0192 26.9354C41.1235 26.8103 41.3216 26.6539 41.4988 26.5028L41.6083 26.4089C41.723 26.3047 41.8429 26.2004 41.9784 26.0857C43.4745 24.7095 43.829 23.0257 43.9698 21.8893C44.001 21.6807 44.0219 21.4774 44.0636 21.2533C44.1262 20.8362 44.1939 20.3566 44.2252 19.8718C44.2565 19.4704 44.2565 19.1159 44.2461 18.7823C44.2617 18.4435 44.2565 16.1706 44.2565 16.1654C44.2565 12.24 43.5215 7.9497 40.9358 4.80626C38.0426 1.29792 33.231 0.03637 28.8416 0.104139C24.5409 0.171909 20.2349 1.60027 17.3625 4.31103C15.0584 6.48485 14.0523 9.52924 13.6769 12.6049C13.6405 12.9125 13.5466 14.8674 13.4684 16.8848C13.3902 18.8292 13.3329 20.8362 13.3642 21.4722C13.3642 21.6026 13.3694 21.6703 13.385 21.6703Z" fill="white"/>
</g>
<mask id="mask1_374_1757" style="mask-type:luminance" maskUnits="userSpaceOnUse" x="0" y="39" width="58" height="25">
<path d="M0 39.6292H58V64H0V39.6292Z" fill="white"/>
</mask>
<g mask="url(#mask1_374_1757)">
<path d="M57.5035 62.4309C57.4982 62.3892 57.493 62.3527 57.4878 62.311C57.003 58.078 56.5547 53.8346 56.1012 49.6017C56.0647 49.2837 56.023 48.9866 55.9813 48.7103C55.8718 47.9857 55.7154 47.3966 55.46 46.9014C55.2827 46.526 55.0586 46.2132 54.7771 45.9369C54.4278 45.7858 54.042 45.6502 53.6354 45.4991C53.6146 45.4991 53.5833 45.4886 53.5624 45.4886C52.035 44.9673 50.4815 44.519 48.9385 44.0603C47.5362 43.6537 46.1287 43.2575 44.7211 42.8665C41.5047 41.7874 38.4812 40.7865 38.2987 40.7761C38.2518 40.9533 38.2049 41.1358 38.1528 41.3026C37.767 42.7466 37.3969 44.1802 37.0007 45.6137C36.6983 46.698 36.396 47.7667 36.0675 48.8406C35.1553 51.7755 34.1335 54.6896 33.1118 57.5932C33.1066 57.6297 33.0909 57.661 33.0805 57.6923C32.9606 58.0259 32.8042 58.3335 32.6478 58.6515C32.5696 58.0989 32.3715 55.998 32.1682 53.7408C31.8815 50.5609 31.5791 47.0473 31.5791 47.0473L32.6843 44.6963C32.7833 44.4877 32.7781 44.2375 32.6739 44.0238L32.0692 42.8509C31.9388 42.5954 31.673 42.4338 31.3915 42.4338H26.2149C25.923 42.4338 25.6624 42.5954 25.532 42.8509L24.9273 44.0238C24.8179 44.2375 24.8179 44.4877 24.9169 44.6963L26.0273 47.0473C26.0273 47.0473 25.7249 50.5609 25.433 53.7408C25.2297 55.998 25.0316 58.0989 24.9534 58.6515C24.7918 58.3335 24.6354 58.0259 24.5259 57.6923C24.5103 57.661 24.4947 57.6297 24.4894 57.5932C23.4677 54.6896 22.4459 51.7755 21.5337 48.8406C21.2052 47.7667 20.8977 46.698 20.6057 45.6137C20.2096 44.1802 19.8342 42.7466 19.4432 41.3026C19.3963 41.1358 19.3494 40.9533 19.3025 40.7761C19.12 40.7865 16.0808 41.7926 12.8592 42.8769C11.4569 43.2627 10.0598 43.6537 8.67315 44.0603C7.11968 44.519 5.57663 44.9673 4.04921 45.4886C4.01793 45.4886 3.99708 45.4991 3.97623 45.4991C3.56961 45.6502 3.18906 45.7858 2.83979 45.9369C2.55829 46.208 2.32892 46.5156 2.15167 46.8857C1.90145 47.3809 1.73985 47.9804 1.63037 48.7103C1.57824 48.9866 1.54696 49.2837 1.51569 49.6017C1.05694 53.8346 0.592982 58.078 0.113386 62.311C0.108172 62.3527 0.102959 62.3892 0.0977465 62.4309C-0.0221531 63.4683 0.785865 64.391 1.84411 64.391C2.25072 64.391 2.72511 64.3962 3.24119 64.3962H3.25683C3.48099 64.4275 3.61132 64.4222 3.61132 64.4222H53.9899C53.9899 64.4222 54.1202 64.4275 54.3392 64.3962C54.3444 64.3962 54.3444 64.3962 54.3444 64.3962C54.8761 64.3962 55.3505 64.391 55.7675 64.391C56.8153 64.391 57.6338 63.4683 57.5035 62.4309Z" fill="white"/>
</g>
</svg>
