<svg width="105" height="102" viewBox="0 0 105 102" fill="none" xmlns="http://www.w3.org/2000/svg">
<mask id="mask0_374_1646" style="mask-type:luminance" maskUnits="userSpaceOnUse" x="33" y="0" width="72" height="72">
<path d="M33.4961 0H104.999V71.0098H33.4961V0Z" fill="white"/>
</mask>
<g mask="url(#mask0_374_1646)">
<path d="M70.0231 52.3084C60.0003 52.3084 51.8674 44.3875 51.8674 34.6108C51.8674 24.8425 60.0003 16.9131 70.0231 16.9131C80.046 16.9131 88.1703 24.8425 88.1703 34.6108C88.1703 44.3875 80.046 52.3084 70.0231 52.3084ZM105.531 38.1199V28.7903H97.6971C97.3294 27.1201 96.8077 25.5004 96.1406 23.9483L102.563 20.3379L97.7826 12.2652L90.9753 16.0949C89.8122 14.8464 88.5294 13.7076 87.1611 12.6785L90.8812 6.38565L82.603 1.72084L78.6862 8.33425C77.0528 7.81969 75.3595 7.4654 73.6149 7.24607V0H64.0453V7.6341C62.335 7.98839 60.6673 8.49452 59.0852 9.14405L55.3737 2.88493L47.0955 7.54975L51.0294 14.1885C49.7466 15.3273 48.5664 16.5673 47.5231 17.9085L41.0664 14.2728L36.2859 22.3456L43.059 26.1668C42.5373 27.7611 42.1696 29.4145 41.9472 31.11H34.5156V40.4312H42.3406C42.7083 42.1183 43.23 43.7295 43.8971 45.2816L37.4746 48.892L42.2551 56.9648L49.0624 53.1351C50.234 54.3835 51.5083 55.5307 52.8851 56.5514L49.1565 62.8443L57.4347 67.5007L61.3515 60.8957C62.9849 61.4103 64.6867 61.7645 66.4313 61.9839V69.2299H75.9924V61.6043C77.7113 61.2415 79.3704 60.7354 80.961 60.0859L84.664 66.345L92.9422 61.6802L89.0084 55.0499C90.2911 53.9111 91.4713 52.6627 92.5232 51.3214L98.9713 54.9571L103.752 46.8844L96.9787 43.0715C97.5004 41.4772 97.8681 39.8154 98.0905 38.1199H105.531Z" fill="white"/>
<path d="M76.0575 26.791C75.9036 26.791 75.6898 26.9682 75.476 27.2634L75.228 27.6008L75.3477 27.2044C75.4845 26.732 75.5444 26.3271 75.5444 25.9475C75.5444 22.354 72.8762 19.4353 69.6008 19.4353C66.3169 19.4353 63.6402 22.354 63.6402 25.9475C63.6402 26.3271 63.7086 26.732 63.8454 27.2044L63.9566 27.6008L63.7171 27.2634C63.5033 26.9682 63.281 26.791 63.1356 26.791C63.127 26.791 63.1185 26.791 63.1014 26.8079C62.9474 26.9682 62.9218 27.778 63.0159 29.2205C63.1099 30.4689 63.8796 31.6499 64.3072 31.6499C64.35 31.6499 64.3756 31.633 64.4098 31.6161L64.4953 31.5486L64.521 31.6583C65.0683 34.4758 67.155 36.4412 69.6008 36.4412C72.0381 36.4412 74.1248 34.4758 74.6721 31.6583L74.6892 31.5486L74.7833 31.6161C74.8175 31.633 74.8431 31.6499 74.8945 31.6499C75.3135 31.6499 76.0832 30.4689 76.1687 29.2205C76.2713 27.778 76.2457 26.9682 76.0917 26.8079C76.0746 26.791 76.0575 26.791 76.0575 26.791Z" fill="white"/>
<path d="M75.3995 37.209L75.3311 37.3102L75.1088 37.209L70.9696 43.3162L70.944 43.1054L70.4565 39.4444L71.3374 37.0402L71.44 36.7787C70.8585 37.0234 70.2427 37.1583 69.6013 37.1583C68.9514 37.1583 68.3357 37.0234 67.7541 36.7787L67.8482 37.0402L68.7376 39.4444L68.2416 43.1391L64.2821 37.2511L64.1452 37.3102L64.0854 37.209L56.2775 40.5072L55.8242 43.4934C58.8345 47.7702 63.8801 50.5876 69.6013 50.5876C75.4679 50.5876 80.6247 47.6183 83.6094 43.1391L83.2074 40.5072L75.3995 37.209Z" fill="white"/>
</g>
<mask id="mask1_374_1646" style="mask-type:luminance" maskUnits="userSpaceOnUse" x="11" y="58" width="47" height="44">
<path d="M11.6055 58.0529H57.5805V101.943H11.6055V58.0529Z" fill="white"/>
</mask>
<g mask="url(#mask1_374_1646)">
<path d="M36.817 90.7151C30.7793 92.0817 24.7417 88.4123 23.3392 82.5243C21.9367 76.6279 25.7081 70.7399 31.7457 69.3734C37.7919 68.0068 43.8295 71.6763 45.2321 77.5727C46.6346 83.4606 42.8717 89.3486 36.817 90.7151ZM54.6563 88.3616L56.3837 82.8448L51.7486 81.4699C51.8341 80.4407 51.8256 79.3863 51.7144 78.3319L56.1956 77.3196L54.8615 71.6931L50.1409 72.7644C49.679 71.8112 49.1317 70.9002 48.5074 70.0567L51.8598 67.003L48.0285 63.0046L46.8569 63.671L44.2657 66.0245C43.3848 65.434 42.4527 64.9195 41.4778 64.4808L42.8204 60.1872L37.1591 58.5001L35.748 63.0215C34.6876 62.9287 33.61 62.9456 32.5239 63.0552L31.4891 58.6856L25.7252 59.9847L26.8198 64.5905C25.8363 65.0376 24.9042 65.569 24.0404 66.1763L20.9104 62.9118L16.5832 66.8512L19.9099 70.3182C19.2941 71.1786 18.7639 72.0896 18.3278 73.0344L13.915 71.7269L12.1875 77.2437L16.8226 78.6271C16.7286 79.6562 16.7542 80.7022 16.8568 81.7567L12.3756 82.7689L13.7097 88.3869L18.4304 87.3241C18.8922 88.2857 19.4395 89.1883 20.0638 90.0403L16.7115 93.0855L20.748 97.3032L24.3055 94.064C25.1864 94.6545 26.1271 95.1775 27.102 95.6077L25.7594 99.9098L31.4122 101.588L32.8232 97.0671C33.8837 97.1598 34.9612 97.143 36.0388 97.0333L37.0821 101.403L42.8461 100.104L41.7514 95.4981C42.7349 95.051 43.6671 94.5195 44.5308 93.9122L47.6608 97.1767L51.9881 93.2373L48.6614 89.7704C49.2771 88.9184 49.8073 88.0074 50.252 87.0541L54.6563 88.3616Z" fill="white"/>
<path d="M41.9833 83.2328L37.0146 81.4951L37.0061 81.4698L37.0146 81.4529L36.3647 80.0526C37.0659 79.4369 37.6304 78.5933 37.7929 77.7329L37.81 77.6654L37.8613 77.7076C37.8784 77.7245 37.8955 77.7245 37.9211 77.7245C38.1606 77.7245 38.1093 77.5304 38.1606 76.8219C38.2204 76.0036 38.2033 75.5397 38.1093 75.4553C38.1007 75.4384 38.1007 75.4384 38.0922 75.4384C38.0066 75.4384 37.8869 75.5397 37.7672 75.7084L37.6304 75.9024L37.6902 75.6746C37.7672 75.4047 37.81 75.1769 37.81 74.9576C37.81 72.9247 36.2877 71.2629 34.4234 71.2629C32.5591 71.2629 31.0454 72.9247 31.0454 74.9576C31.0454 75.1769 31.0796 75.4047 31.1566 75.6746L31.225 75.9024L31.0882 75.7084C30.9599 75.5397 30.8402 75.4384 30.7546 75.4384C30.7461 75.4384 30.7461 75.4384 30.7375 75.4553C30.6435 75.5397 30.6349 76.0036 30.6862 76.8219C30.7375 77.5304 30.6948 77.7245 30.9342 77.7245C30.9599 77.7245 30.977 77.7245 30.9855 77.7076L31.0454 77.6654L31.054 77.7329C31.225 78.5933 31.7894 79.4369 32.4821 80.0526L31.8493 81.4276L26.6839 83.2328L26.2734 84.903C28.0266 87.6024 31.0882 89.3317 34.526 89.3317C35.2786 89.3317 36.0226 89.2473 36.7495 89.0786C39.1184 88.5387 41.1281 87.1722 42.5135 85.2573L41.9833 83.2328Z" fill="white"/>
</g>
<mask id="mask2_374_1646" style="mask-type:luminance" maskUnits="userSpaceOnUse" x="0" y="29" width="34" height="36">
<path d="M0 29.9796H33.4978V64.5313H0V29.9796Z" fill="white"/>
</mask>
<g mask="url(#mask2_374_1646)">
<path d="M25.0478 47.9556C24.4321 52.2662 20.1903 55.2523 15.5894 54.6281C10.9799 53.9954 7.73018 49.997 8.35447 45.6865C8.97021 41.376 13.212 38.3898 17.8214 39.0225C22.4309 39.6467 25.6721 43.6535 25.0478 47.9556ZM32.8129 50.5959L33.403 46.4794L29.8026 45.9902C29.7342 45.231 29.5974 44.4802 29.3922 43.7548L32.5735 42.5654L30.8887 38.7019L27.5107 39.9672C27.0575 39.343 26.5444 38.761 25.9714 38.2211L28.0837 35.682L24.5689 33.1092L22.3539 35.7748C21.6356 35.4458 20.8745 35.1843 20.0877 34.9819L20.5409 31.7848L16.1453 31.1859L15.6663 34.5517C14.8539 34.6023 14.0586 34.7204 13.2804 34.906L11.9719 31.9114L7.87556 33.4466L9.26097 36.6268C8.59392 37.0401 7.97819 37.521 7.41376 38.044L4.67715 36.0363L1.95765 39.3008L4.83964 41.4097C4.49756 42.0761 4.2239 42.7847 4.01866 43.5186L0.597894 43.0546L0.0078125 47.1627L3.60816 47.6604C3.66803 48.4196 3.80486 49.1619 4.0101 49.8874L0.837347 51.0768L2.52207 54.9318L5.89152 53.6749C6.35332 54.2991 6.86644 54.8812 7.43942 55.421L5.3271 57.9601L8.83338 60.5329L11.0569 57.8673C11.7752 58.1963 12.5278 58.4662 13.3231 58.6687L12.8613 61.8657L17.257 62.4646L17.7445 59.0989C18.5569 59.0483 19.3522 58.9218 20.1219 58.7362L21.4303 61.7308L25.5352 60.1955L24.1413 57.0238C24.8083 56.602 25.4241 56.1296 25.997 55.5982L28.7337 57.6058L31.4446 54.3497L28.5626 52.2409C28.9047 51.5745 29.1869 50.8574 29.3922 50.1236L32.8129 50.5959Z" fill="white"/>
<path d="M21.4142 47.9726L18.2415 46.8591V46.8422L17.831 45.9396C18.2757 45.5516 18.6348 45.0117 18.7375 44.4634L18.746 44.4297L18.7802 44.455C18.7973 44.4634 18.8059 44.4634 18.823 44.4634C18.9684 44.4634 18.9427 44.3369 18.9769 43.8814C19.0111 43.3668 19.0026 43.0716 18.9427 43.0125C18.9342 43.0125 18.9342 43.0041 18.9342 43.0041C18.8828 43.0041 18.7973 43.0716 18.7204 43.1812L18.6348 43.2993L18.6776 43.1559C18.7289 42.9872 18.746 42.8438 18.746 42.7004C18.746 41.4014 17.7797 40.3469 16.5995 40.3469C15.4022 40.3469 14.4359 41.4014 14.4359 42.7004C14.4359 42.8438 14.4615 42.9872 14.5128 43.1559L14.5556 43.2993L14.4701 43.1812C14.3845 43.0716 14.3161 43.0041 14.2563 43.0041L14.2477 43.0125C14.1879 43.0716 14.1793 43.3668 14.2135 43.8814C14.2477 44.3369 14.2221 44.4634 14.376 44.4634C14.3845 44.4634 14.4016 44.4634 14.4102 44.455L14.4359 44.4297L14.453 44.4634C14.5556 45.0117 14.9233 45.5432 15.3595 45.9396L14.949 46.8169L11.665 47.9726L11.0664 50.3936C12.2038 51.777 13.8201 52.688 15.6759 52.9411C16.0265 52.9917 16.36 53.017 16.7021 53.017C18.8657 53.0086 20.8241 52.0638 22.0984 50.5623L21.4142 47.9726Z" fill="white"/>
</g>
</svg>
